<mxfile host="app.diagrams.net" modified="2024-05-02T14:24:00.505Z" agent="Mozilla/5.0 (Windows NT 10.0; Win64; x64) AppleWebKit/537.36 (KHTML, like Gecko) Chrome/124.0.0.0 Safari/537.36" etag="7nfYapKmOSrEPKXqXLqK" version="24.3.1" type="github">
  <diagram id="C5RBs43oDa-KdzZeNtuy" name="Page-1">
    <mxGraphModel dx="1877" dy="562" grid="1" gridSize="10" guides="1" tooltips="1" connect="1" arrows="1" fold="1" page="1" pageScale="1" pageWidth="827" pageHeight="1169" math="0" shadow="0">
      <root>
        <mxCell id="WIyWlLk6GJQsqaUBKTNV-0" />
        <mxCell id="WIyWlLk6GJQsqaUBKTNV-1" parent="WIyWlLk6GJQsqaUBKTNV-0" />
        <mxCell id="y5IzGZnKFNXSVrpixcKK-1" style="edgeStyle=orthogonalEdgeStyle;rounded=0;orthogonalLoop=1;jettySize=auto;html=1;" parent="WIyWlLk6GJQsqaUBKTNV-1" source="y5IzGZnKFNXSVrpixcKK-0" edge="1">
          <mxGeometry relative="1" as="geometry">
            <mxPoint x="360" y="95" as="targetPoint" />
          </mxGeometry>
        </mxCell>
        <mxCell id="y5IzGZnKFNXSVrpixcKK-0" value="Fazer interface geral do site e fundamentos basicos.&lt;div&gt;(UI inicial quando é aberto)&lt;/div&gt;&lt;div&gt;&lt;br&gt;&lt;/div&gt;&lt;div&gt;TERMINADO&lt;/div&gt;" style="rounded=1;whiteSpace=wrap;html=1;" parent="WIyWlLk6GJQsqaUBKTNV-1" vertex="1">
          <mxGeometry x="80" y="40" width="170" height="110" as="geometry" />
        </mxCell>
        <mxCell id="y5IzGZnKFNXSVrpixcKK-17" style="edgeStyle=orthogonalEdgeStyle;rounded=0;orthogonalLoop=1;jettySize=auto;html=1;" parent="WIyWlLk6GJQsqaUBKTNV-1" source="y5IzGZnKFNXSVrpixcKK-2" edge="1">
          <mxGeometry relative="1" as="geometry">
            <mxPoint x="670" y="107.5" as="targetPoint" />
          </mxGeometry>
        </mxCell>
        <mxCell id="y5IzGZnKFNXSVrpixcKK-2" value="3 Modos de jogo:&lt;div&gt;&lt;br&gt;&lt;/div&gt;&lt;div&gt;-Básico: 9x9, 10 minas;&lt;/div&gt;&lt;div&gt;-Intermédio: 16x16, 40 minas;&lt;/div&gt;&lt;div&gt;-Avançado: 30x16, 99 minas&lt;/div&gt;" style="rounded=1;whiteSpace=wrap;html=1;" parent="WIyWlLk6GJQsqaUBKTNV-1" vertex="1">
          <mxGeometry x="360" y="40" width="180" height="135" as="geometry" />
        </mxCell>
        <mxCell id="y5IzGZnKFNXSVrpixcKK-6" style="edgeStyle=orthogonalEdgeStyle;rounded=0;orthogonalLoop=1;jettySize=auto;html=1;" parent="WIyWlLk6GJQsqaUBKTNV-1" source="y5IzGZnKFNXSVrpixcKK-5" edge="1">
          <mxGeometry relative="1" as="geometry">
            <mxPoint x="590" y="280" as="targetPoint" />
          </mxGeometry>
        </mxCell>
        <mxCell id="y5IzGZnKFNXSVrpixcKK-8" style="edgeStyle=orthogonalEdgeStyle;rounded=0;orthogonalLoop=1;jettySize=auto;html=1;" parent="WIyWlLk6GJQsqaUBKTNV-1" source="y5IzGZnKFNXSVrpixcKK-5" edge="1">
          <mxGeometry relative="1" as="geometry">
            <mxPoint x="200" y="280" as="targetPoint" />
          </mxGeometry>
        </mxCell>
        <mxCell id="y5IzGZnKFNXSVrpixcKK-5" value="Mecanicas do jogo:" style="rounded=1;whiteSpace=wrap;html=1;" parent="WIyWlLk6GJQsqaUBKTNV-1" vertex="1">
          <mxGeometry x="354" y="230" width="116" height="100" as="geometry" />
        </mxCell>
        <mxCell id="y5IzGZnKFNXSVrpixcKK-7" value="Click Direito:&lt;div&gt;alterar entre os diferentes&lt;br/&gt;estados possíveis (presença de mina, possibilidade de mina, estado normal)&lt;br&gt;&lt;/div&gt;" style="rounded=1;whiteSpace=wrap;html=1;" parent="WIyWlLk6GJQsqaUBKTNV-1" vertex="1">
          <mxGeometry x="590" y="225" width="160" height="110" as="geometry" />
        </mxCell>
        <mxCell id="y5IzGZnKFNXSVrpixcKK-11" style="edgeStyle=orthogonalEdgeStyle;rounded=0;orthogonalLoop=1;jettySize=auto;html=1;exitX=0.5;exitY=1;exitDx=0;exitDy=0;entryX=0.5;entryY=0;entryDx=0;entryDy=0;" parent="WIyWlLk6GJQsqaUBKTNV-1" source="y5IzGZnKFNXSVrpixcKK-9" target="y5IzGZnKFNXSVrpixcKK-10" edge="1">
          <mxGeometry relative="1" as="geometry" />
        </mxCell>
        <mxCell id="y5IzGZnKFNXSVrpixcKK-9" value="Click Esquerdo:&lt;div&gt;Revelar a celula, e caso vazia revelar tambem todas as adjacentes que nao tem minas adjacentes&lt;/div&gt;" style="rounded=1;whiteSpace=wrap;html=1;" parent="WIyWlLk6GJQsqaUBKTNV-1" vertex="1">
          <mxGeometry x="60" y="230" width="140" height="100" as="geometry" />
        </mxCell>
        <mxCell id="y5IzGZnKFNXSVrpixcKK-10" value="" style="shape=image;verticalLabelPosition=bottom;labelBackgroundColor=default;verticalAlign=top;aspect=fixed;imageAspect=0;image=data:image/png,iVBORw0KGgoAAAANSUhEUgAAASgAAAB8CAYAAADaby1MAAAAAXNSR0IArs4c6QAAAARnQU1BAACxjwv8YQUAAAAJcEhZcwAADsMAAA7DAcdvqGQAAO0ISURBVHhe7P0HuCXXVecNr1Mnn3NT55ZaqZVjK7YkS5ZzkiM2tsHGBgweeMGADSYPDDkMnmGGODOewTjiALZxACewcLZyzlJLrVbnm++JVXWq3t9/7VPdV1J7Zr4X9ff08+Dq3rfqVO2w9tpr/fdau/auXco57LvHd4/vHt89jsEjGp+/e3z3+O7x3eOYO74LUN89vnt89zhmj+8C1HeP7x7fPY7Z47sA9d3ju8d3j2P2OGYHya+86NnWr/QsLQ+tlletOqxaiX+jKLNy1ra4MrKkHFtZkYcgbVSzUrls5aRjo0rLEqtZNBpavZRYXjKLrULcxJJS1cp5ZlVLbcSdERhd5jolfV7KyEwht1KJnHOFiFJ7Vs0pL1trKTTVstwq2QrcW2NJVCZdyvVIlHCmMNJlWWRZqWkT2T5yz6xP3HaWUpeedWsNG2WZRcQV99UAkGRl6Dfybg4bNqCcuNK3KnRUk5rnmUSpRfCjnJVpuLINo6FF9ZJFcdlqSd166m4qEXnl8EN5ZwQVwO+UQNqStcxG8Ka+aCNoHqWbSUThzqfEr6mB179EHRrDyPr1ecqcsgq8WK62IXTF1naoU416lvNxOeIbvCCUoK+ax5bVOpZmDaska+222/6R5088Lr70hRQEvdAhHpfgTUV8SFtQUbNho0/rDLlXteU696jjcfk+Wy5VbFBab7V0GTqpH0HVlHzAAPgakWbODtS2wL+GbRrso92bNqxULcqWaMMK8crQhVR4wroNkQu1RBWejqA9Lk1abQSv8kWz+jL1aFqUTFGvgdXzDvRFNogatHGJEhPqTCsjQ6Ny05qDri01YDO/Z5Bb5bvYGJE2selBZr1KXQJrSZKENh8fR1JFPS/u66wmLrncHI6r38Ux4r6e6V6Feo5GQS51L0PmyqviKo7L4Ph3prTja5Wr+IcP8qSNFVtFq8V0jsqUQTyVdfu3vzKO+/QdxyxAXXbRVTQkSlhtWjaqW2WEUEUjFIJGhVFS1pGEMyshMCUUaABTxbYqwtuyFKErZUN+gV40QoJQR4CMQKmEeJUBrxqApOqr2ctZy8UbTVZbOPMl7GqSYZ1UeWqluGbV6iL0cB+5StIpq1N+BECVHNyUSA0XIdCRxfWaTWe7EVyzlWgjAo/6ZgBUuWrNFBpUosoSBVElNDg5VEdd66p+rSYAUrEKoQTgjADlUYrywY8SoJ3CjxIgXU161ibvpFwXvnmdFN+V16nKATOAoAJAjRoAQER5+ygIQRttsUosFpEXwcHWD+KPKBOgSFqL1ojhcxbbYnW9dUsDW5fQYYzgDgDlhFMWrQA4qh6AOgo/quyD53ARxb7j1i+N8z18XHT5xTQfSh41vbvIbeD1L2d1+A1xJcA4B6BGka3UWpanVTsefvZoy050HArf97oFgIUWdSjiKvJQz5ftYO046hrb5mQf9W9CdxPAiuEbdMKP6iixKsolMIzVQSEfFfKsVejIqIMNZ0Q8neQSpbQQv5ZVSpRJsyWlCRvSjlLY8qhDPn3KzqlFhZhl69Cn0CQ2NVQ7lABY2hi5bSe0BekFBrpfgIu3mS5VnfE9HbofQavHDTfgEe0C8Kx+Vhzioss0oSjDD64r1dBmhw89p53H8RFk6oaujIFzNX1O2Ehyrmv+cJF7Wp5wTtPU7rn5mx7z6TyOXYDa/gwsjU12xpWvsMm1p6EIAEydHr6eInygNmSPUIYM5bVexxYev93uv+NfbPq4i+zUbVdZqU1vhwI3AC01YorClNDeEYyMaaSst2T3fuvzNuws29mXP9fa67fSC6D8FQCnrIZBQBFSwQh2nOXDrg137rL7bvmkTWw4w066+CorN7ZYu0Z8AYU0UQcndTwpyj3s92znDR+32flZO/0Zr7a1a46zehVwbTRQiXFvhrSPRBfSnCapze7fYw9/40O25oTTbeslL7BKbT1GEXWvABw19YYIFZZEhlUlJRt099iOW75onX0P24mXvtY2bjnF6VddygQVoZAIwFD20YCee27Orv/ah2z95g12zoXfgwExYegaAgzEADhBaCWP1AH+DpI9tvfmG2z+sTtsK/Won7TVGknZ2g14SnzIcAHPAOsUBRwREup88/XvBfwOYnG27PYbn9q7XnLlJVi2M1aePNUmN50MoFF2Gb6QoQMUgBHR8VQA1A49dNqlg3rkq4YRYlOnPxueCGjRK6dBdRUhgacVQHvWpq0//6hV995ilTVYU7RbCyVNhcz1CGs2dHYjyoqRKQFUNFy2A7vvpPJ927TxSuK1La8D7BGgaXQM5S4tR+eDFZ8IKqBvePBhy5Z2OVDFKHeV1h3I+Kak9pD60NF2q6INSxdLVu1QLov2AA46ZK0U16sBZ/VRq9VcRjLAqQCPJ8dNHESe+szzJnB3fOdwOTllR7Lk+JmgHypnOKRjgOdPyEOCLfnTD5cRtVdVIq9G+LdlQV18+eXWb51jz33Tb1nS3IwSIQy1oeXVkdVHE+owUWoUQhZFPLKVR6+3z3/0j+2cZ77FzrryBYAAYkIvVkUAJQyyrZSmhKIOUKRSPLQb3v8uW1zcZ8//4V+yZP0WK6Ggsv69TRQQdJJLTywbAHaPP2yfe88v2cmXvNTOeOmb6azp/SmDDl3tE5IQsPbV2Vij27c7P/2X9sADd9mLf/S3rLH2BKuhTCl1Ubqg2NhzAFRGGQmKXYp79unffI2du/1au/DF/87S6gTAQVGECHDLsSpKI1xTrAmVUcHNuftf3mu3ffmj9vx3fszqgGC1hoKTt/RVZYiuGhZQgmrldN+N5UV775+83c7cdoFd8cKftO4kbpsASuBEPWT2SxaVPzqGhTawx7/2Bbv+H99tb/il/2ELU8dhZdAeci9Vd6+H6qCenWuUsDm71/7xQ2+3iWQnSlmz2256au96yfZn2Uq6wbY9+4fslIuea4Mqlg0gXJWfB0OHUmKsYIxELErAc5DbDX/z+7bY6dgL3/JbeKq4jyi+80edCv/ET1nV5WFiSwDF7nu/and97t127jWvsBMvebFNwE91OqM6dhMWYwTvU7nL0C4LpzRYsX/6xF9YurLHXvq9/8HyCVxg3LMyzCypotU+7iOVpE6xrOB42eYf/LZ989PvtrXI52lbt1irBqhBb0T+VUrTITDLKEfW3b7Zg/bYrsecZyeffJKtWbPWLZZgtcA/mcEc+itrRuC1Y8cOW15etqn2hJ126qnWoJPTIZArDsUfCXChb35+3nbufMzvn3DCCbZxwwZvV7m/kgcdAp/gxuUWx4k9/MgO6w3oEFCCs846axVNQbLdxYNmWYayzuYXFu3BBx+0ZnvS49x+w9c936fzOGYB6qLLLrFe80J77lv/iw0nMLVpj0oNUxQlqsCMKi7XCEXoj+jF6VL7D37F/vmDv29nPPsn7OxrrrVhE+HF1W9i2ZRlutIsGQZYDQ1aQlDyJLbb/vuv2PzsbnvuT/0ni1A6KXaFXvyQ0iHokpUh8thHSSYeu9s++2c/bidf/nrb+uqfwDqTyxfAQ4CgQ+yUkqYazqEXuuPv/qM9cPctdu3b/pPV6MFr5E3XDRjQa4kujVU5GMiCgsqkbx/9pWfbeVd/r217+dstbrSsintQBZzcbZNVB00J1g0eCvoysHv+6T12+xfeY9f+6iesBdCGeriOU0ZoXgFzVwoMQE0szdq7f+eH7KxLL7crXvGLNoJXXgdX9GCNZLLoqEcP2sqD1PZ+5dP2jU/9J3vzb3zU5qdOBPwza2JtusXpAIXQEt9BKiaP+SX79P98q21Md+CiNeyWm7/ldKw+Lr3sCptLN9t5z/1/7OTtL6TNIJq61qBDOgHLAQ14hZfe4Xe5G9vX/tev2dLykn3PO/7MBvW61QBJjGt5Jw7ITofG20i8DD3z93zVvvLBP7Dtr/pRO/HyV1oDV05tpqEh+glgQxZNCbChsDjDQI/tU//zP+CT77JX/eifWjy1wfBCrU4ZsngT2kGghp9IG9CUw77N3n2dXfc3/9le+8KL7Ade/wpbNzllzXrTXfsh/CnTEDXAbDSIrQfg3P/o4/ZH73oXvBrZO9/5TjvttNOsiTtf1RjZGHDkuqZYM7KYVlZW7DOf+Yx9/OMftxe98IX2xje80SYnJ60JSAk0BQ6SO40DxsRPEL4djzxif/gHf+Cu4C//8i/bqacBanUsd3kiKgN+uazSyHEMXf2+5//3n/m0vfhFL7LXve51NrNmxsFKdKk9BFACNOXZoy6P7txp//GP3uUgqrxuv+nbTvvTeQRuHIsHMqCB2ogeMpJC13DtEI42DV4DeGqNvtWaKxa1MGlb9GRVjVeswMwuytNDqWOrNjG3mwPiDgkoVDO3Vp0egt4zoqeOokWrlubILLVGNcX8T3DZFIbWJr82pv1EbcBv0pC+xPOotGR5ZWBlXE2PX41DwP2coMx2LbYWGtUkfUQ5pahDfz0P7V3qQk9MvAb5TzRim2wkNgWNE+TVhoaWaCBtVOpjyVAW96ImeTQ70N9BwGJDJwmpVZox+QO+sixhl8YW6pgazUpCHiNoUp6qi+gbUKZoxvqCJvEosgWAGMiCp02vd0xdRf+4TmM+NOp9eAmPKzH1ht88q1Nus9GF3gFlUV/xSoH4TehvcE9jznoFUUWYNYZ0pKNUXqbDWbKsvmSjVs/ySdpkgrq1qUcztTX1ka0hz2nKnCL/yXLfWtmSTWQLNhWt2GQE/6LUpuDVFHWYxg2eod7T3i6Kn+BALtpkSnwszxbufpu2m6Ju0+Q7BU+man0CbUHaKT0rLVub/NvporVL8A1gUv2m4FUoYwT40Fk2AZ4G4IyljnDSaZRsCmDavH6trd84bWtmCJtOtMoJWy3ffJJNrj/eNm5cb2vWTdq6NVMARWRVwszUpG1Yt9Y2rltnG9evCvo9vqfnrUbdwXQCIFu/bg0WEfcVKE/X/lvpOK9fu8Y2ECqgtsJaaFFeymfTpg1Ox6aNGzx4HkpDnlNY0nTdXoaXu5b469ePaVpP/gqhHOW1nudV3FdvSyHYUTiOWYCSKSy7R1aAerwGgDKBgk9y3eJeS29LKk16NpmhekM3hbndsro1Md05R3XvLRWnWW1wjqyJG9CISEMPUuVZOWtYhKleKrWx2OsEfHwEYUTPNGrhvmFZ5ATlU8fUjaIWbmIT2rBqVA5/0yppSDeq43I1OCO9skhS3I8S6aKsbdGInp4y6lSmGZES0y6jN0tBm8TTVQhVrmv00OQ/moS2aSxFelWEWJZak/q2y3WvewOFaqJYVQBM1obGUeS+ppUG6alHvUw9yLNF3q265dSlTr5NTIEGZob4U8byrIxagCH0U+4IWkbUPXP6UbhWzeteg4916BCP8HeIP8HviLo0LYdPHt/PBMrx+sOHUlXv81LqQVvqjcKRjlwD0zzjvzqhEq6d3LU6bVWTu43lEtWQA7nRdFQl6pWV6PU15sdzgaCewWZhBAAswEZmCJAMiOitHNfyYoiUV2WhASoAX5Wz5+8gA9gQv9rANYZu7GboQvpwORER+EBHQYdCU5MGawhaGwC7817kI1c6pNxS2BJtW59eawvw++uPLdqXHz5o/QZuUHOKUCcfMuKQ1aHxHrlrTw7NJu1F0HWdtpGrpfg6r05TxCmuW4QqCiPLR5aS4uu3QrvdfkqaVgtdkSVKnmXSCGiU9snxGrRvcxwayEkdmanBTy9D5isyeDSOYxagsrTF3xV67TK9AAIDCNWwqCr0pgKrDJs7iho2CV+QYUtgcIZgD8spZ4RUZr8sWZ75G2R6vRwh7CFg6AXwgm+P0PZwh/RmR2OYcrmqCFuVfBTkJpUoO5PVQhYj0g/IW0LZxv0bINhVFKWBVdcgXV2BAkVPTa4lvXkGuMTQiW2EjlAPFED5VWUJElFBbqUHDRATNFqU03tLyREZa2iaBfnmci9QmAZ/WjnCplfq0FXxsRp5wZRPuerUIqXlrHL0PBatRNY40xBhzbwcVBFeVKl3jeB14Kx61AACIE4PcW3gQRWrLoEhMvexKMSEKgxWGrl6coHkMqH3Xo4G9EVTXqrg5sjfPcIxmqahAT14UwEhKoB3lcaqEaQkAm6B+BCFSECHmI5mQDy9kYtrLUBY4EocB+MAyGkTUAYEEtLEyEQMMA8A2YR0MTIUA+BDQjbuiDKUcESalI5CHY3iDwHwIYA8oNOKaZ+s1qSMCRsK8OFjBd7WsKRq4q/zMfAyB4grtE1O/mUQc9fBJfvmg4/YvQfnAUViUL+IjsuVmsaRvFU4V1H0KmhXGwddF0HPFdcH1Qml8dnvHUqLbii+AINnuva45C+3L6SnPNpG+R0piBZaC4HX33DW/YImgVENuanRDhXqVqV9ZBgEl4/6y78+CsfRyfVpOHIUP0cIMh8wRUFQLPn0GWY6fsP4uQAk9XEpTT/IUAQpU0U9GXkQBWVBkIhTQ5AqJdwH3dPzkgY+NX6CsPFbEwo0oKm0mn4gRVcAv+gZ9UxnpaHBffBT1wJC9fwEIhy6hm69ddO8K4XIA/GBKeXvPS35FgotQCOZIfdOm8wO1V2BBD5wrQj+Ykudr3jCfQhwfuSAshFEU5GH6iTa69DoYAnNKlugE0GHQgXhldvgSKIyOestmuoR6hKeV6iz6lDOQ70rJfFZ1q3qHToDn27g+UCPpkjAW9U4g/hMPcURDimCBm7VJqJF5QigfRyM8qucq8qToHloEe1Q5rqGJSFQoA/x9ivTxhV4pcF1dMrHA9WePHLFK2UjOhhcUXhQJ+ie9NHlQ21JXWRpqW1VX2wg6inZwJ3j9yQuKlAQwJz6VXEtPV/SqAPTdA4kkMJghN72YSmrSS7aut4uO/8kaoprSlM2RhqPEnDAL+ef8pAMixvko7PucxZ9fiaOnhX3i2svT2eCg4rO4/hF/ofK4FyGyeG+8tCzI1zzfHU+KsPz4Qqk80jkSES4r2kYXEcSTlmbfv/pP45Ork/DMaKFxCyfTqBAe6QwQqqe8jvx3xlqRkCwNI8GOPNBWlmbHhAKvSELr/E1wEcM3ddD/o8Rz3s+vULVa2ad1Stkiu9pEIJxfn5N2QreaBx6M+b0eMgIo/B7/Byx4K8aWHlz9kADexmIgAfRrHucuUYsCNBMSr0xOVRfnsekV5kJ9xPxByXRfKgMRTlMp6YukAcZiG8ajM35QTZOu5MmAXMhK5E/NKseypeHXheepIpK+kCz8odmnoUyKN/rG+oqGukqPFASAAWcYD0JFkeOsE89NIEjMixFMitR7wiaaUoKhXDyLlOuJlIWnU3ofAAYBxKe88wD8cqkDWGM3wTHTNLqpYoGtv03weOMz2VkoIJcOQ5yT+V5JwJvvQyPG+55nyDyqFtKni4+0JJrRJ4O0spDfg8oj4xSdVCaPQX9SbgXIJtnHHKlisHtIx4OHk88ijT/u+OQfI7jPiH++Hr1vSJ+kUZx/Mzv/9NxuBxx+egcRy/nf/XRsFGCOIxo0pR+zd9aAVBxzZIhtggyMYoRIdwOPc/SADQSgThXyK1PLzZIK9aPy9Ynr+EIdwPZ9+eaQ4WdodneMekSv0ccpG5IXgPyVJrekN/0oDGCmmCyeVxEdYgyCCxSnqcxSo7Xk/i1aIOOGNcDc2cICMiOimG15026AfkNqEsfme5Tr1jzjVDQmKC46qpLI2wV6ugAlqie+k1eQ8qKcUe45zxwvrgaehkxkh1TRkIZynsAD/rUZUh9ve7cHzqfwtwfB0PxgroqqIxUZXhdKgAjeY7rkJdJIxrhle6n47jon1+rvZRGk0uFjBJeTe9AzUOTPumQYjucoQsC6TBNQXzI4Qm8Vf3gkd5w+tQN2qDocHxqBvdyBWSk4IdCIr75fQWHGQd3vZXM4InSeL4eKJP2y7mWjHlnAWBRlIOxgDgjYUYPofgJIaU8TeRMyE+zqHNlOIb4NBsSbxiGFXheHQ6tvLxAJsqPjoDf6viEQF4HBXWEq4I600OBskPnKhCBRoXiepx+dfx0VXwFlVM8K+KmdFjFuYh3OD50Kp5+K42nK4LiHP7tAKUSaGddH43jmAWo0LPhH8e4ZwkuyQAGoAiZQo8IhLxfBNwYlK5KyJG0BClNEChZEC6wgEcsReI6junxh2oo0om9RBoheUms161YBDzXeUh5Ah7N3B4MaUxNQEzlNtBjeOOF+KIp79NABCx5owP1e5rAHvcFGWpC4mERqFEl5KnKkLCLJuINoScmpC4QQAdKVUZRStBkfQSB8lVH1Vv1HfXG19CoUOOfVqlkaR8aURLoFP2qb1GG6h0AT42uMSsABIUZDLB/+ghqD9q6xCHkyrsX6iRapSSaIyRmUrILd6zZkgPVOdQ7hyYFg07Vv5IOcHP6FlFh75GPcGh2ewboufOrtiJI6RN1AgJSgb74BHA4MApkFBf6h9Dgk095lugZQDOkvWLVmTQ+R47ncqo1z0llKE8BlazLEI90RRryGVLXYL2qQ9ECFqUJsiK5ED2xgBAg1nQNIlEJLC3yDQDEM5VL4w77Xcs4n7lurb1k+6Xwfkin1KON4B9B7MRuIy/JUQotI/InncIgPhR0X/HdjVIT8Fvtm5BmddyYawU9V3wFdW7FtYKngSaVV5wlcwmML0IYVwpt7jQR5zB9lAUTNC0hQbh8jtYYmL5TG/9rj2MWoOpIfZ4s2agza/HSfsu6iyhRDyXoAFZoAKZB7r+XeLZMvEVr5APLu3ut1N1n2cqcWWfJyr0Vq/QHVhVYdFGYDlK1smzZ8kGUac7qo0Wz7gHLO3NWIo9SV2m6VqWMqNe3crdLPvSAnLPlecqgzME81weITx7QU+oTj/glgtOkuJSRrxzketaaoxUbLe210eI+yll2OqrEK0NXuYc9Bm0l7it+srjLSumKZcNFgGiWsED95gGLJfKnZ0YY8wGCDo3iR9bv2GDpIIAjXuyxdGUXtM1Ce8cqPVyL3jDUpduh7I7XIV7Ya9V8BZqpQ5+6w9u8tww/VJcegXKgzaj/aJlnK4s2XNpntWhA+v2WLu63EvkbNCh+hNCqTfJuqLvRHin8iQZL1tR4lrT3CEdUm3BraTQaYulQHh1RTv1GmJZZD8tKwDzkHgqSoRSZgy8ogcUSae1bAn0ofgrIpgNAFrCQpZOTTyp6OGegs15qjDLikIcAM6VuI+RnRN6pAqa20spdTAfwVeBaBqhQwtGQduWco9AjgX4XAOhiMQHoZUC6hiKrXWoAWoZo9XjWp01XkIk+ILUGEN46PWMDeNOh3D5tIiBxEAD5ZPH0ud+D113i6Lw6aHLmgPwFDhpcVzpddzrdJ8RXHkU+KysdQEQdA90j4VB85OVw6FuH9EsrK9bh9wDeyBpUfHVARZ4qY3XoEbfvdVN5/dDpCsGP0nHMTtS88uKL7ABWS+v8N9nk+mlLmg2bjNo2qudWL2PV5A2ZKDI/rIuLsvjQ9Vbf8SXrzWy14y+4xkaNdVat1D1upVLFPanBSARjWLMeIFNDIfde90E6pv02ffEbrbr2FCtX9Xpbb0gIkmp6XvUwo1EfwW3Y8q5bLL3nQ9Ztn28nXvoqGzb1lmPS33BocqQ6EfVysVtjUqolm/3qh7lxwCbOfY01tpxkjfIkdn/FJxj6+jssRY2JSZg14D+78z6Lb/07y9adYWsufbnljUlrlkfW0DvuastyvQpGgRKUtz/i3mDF9n3zb62xeI81tr3MZk44kzrVrVKfpN7QRT1kE6DGgJzcEgR696M2f9t7rTF5vE1c8f3kSx38bU3xtgd3DytDM9tjrVlEMB+9+W9tcvFhK5/9PdY8ZSt5Tlq5XrU69dZbImpOr4sCkyYFJLqzD1uPNOursfVra+yOG78aGnbVcfGVV9ncoGUnXPA8O/UytVkDvtStXWtbtdqkHnKtUAZApCvrACW68f2/Cah07Kof+nWzxoRPVqxrAqJek6vNOGRFJoDnIpg3d/uX7J4vfsC2XPk9dsozX2v1UmwTrYaV9Lpco+mIv1z4vqwJgLrWn7cvfvBPAKvYLvzen7Xm2hNsRovSKSdtTMFTWYdDrBF4Cl0RHcdjt15nd3/l7+1Z28+317z65TY52YIntJNkToPp0KR5apnSaRLljp323ve+D3kp2Zve9CY7/fTTnf5iaoAOqWUAMOoO6H/2s5+1m266yc4//3x71ateZTMzMx5XaZRP4WYJMGTlPPzww/b+97/f773hDW+ws88+27QWL6Ktivg6lL8sIYHNZ//hH+z2227zWeSvftX32Mz0tFXgqQb9PX5J+cstpAz4pZnqf/XXfw0NNRsC4rcfYbXAv/Y4ZgHqqovPsSUaeK613RoVeutWzRqjKctR1FIN0MhhdoxVAHN7aZNefM42LN9pg+p66zc2WFZFmFAgvbkro3x5VPNBX40nxDC4PCjb1PwN+JJ7ba75HGeyv4SRANb0ClVjWoCHTGB632G/CeDssc2Db9tidBbCerrMPH/TpDVhAjdJoguWj1dkgGhuMwv34XrO21LjItJUTfOv9IaqVtfcIilIEFyZ/jLBc/ywqZWbrV893uLGqSLGqnWcjSpCook7gCbmDvljAYxEU2zV7g5rDB6z7sR51LNBEngk4a1TFsKFdyBPxMdZYiytKtbG1NL13J+xualzEUL4gaCXx6/HJfg5gjsaaVYy1SJ+1L/X1g522+zU5TYUINsEdOEq6u2lSNI/3BvN1tcSmR71Wd+50ydWrlSm7J4bvzZu2cPHlZdux0OcsMc78KrRtgT3olIGOEpT0N+gLlgB+FFy78gOxUjthJXbrQb/dpRPsgx+SEHLEFHGVQzKLaBMsXpwRTTnbf4+O6u9YjvSdbZQ2UJ7yW3AlWm1fLKk1DShgxtgZVQpq9w9aBtsHhDs2n74ObKWW82RpiDUpikDXpWAe9qN5rLysGet/kE7YQLLbYCVz33x0ZdWodQ1fxFBGSXamWcajEf8vEPQMcDSUweqt4LSxPC6P4CN6hLGejyqz0GSFaPX/8E6Ulz4znNdK81qdQ55CYT0lrOChYRVyi2ffa4y9E/EjGkdYC2uXbPGZg/O2kR7gqx5prw9F3WonsLLCOOA1APgFkeh0m678Rse8+k8jlmAuuTiay2Z2mCXvOa3rTVRtgQ+TOUtG9E4WpKh8YFyjOuSxrY0qtvCo3fZfZ/6C9t42Svs1O0voDee9FnoDb2NqaA4EhbijujBelS51onszk/+kS1377eLX/NHZms2o5ya41JC2NUYpMGKyHFBKgkuWtq2zsH77MYP/6ptPv/Vdt5Vr7O0hYVFrxQW5o6FhUbzsQ9pVNK1XZ97r+1++Bbb/r2/avVNG+m1BbCRxSiiK9RYqARoepM3xAX79nvebseffqVd8Lw3+7ycajXBQkOISCthKOFLaFFnEgMUCN+9X/2YPXTL5+3SH/p9m9hwIvEiqzYQYgmiC6nqgP+hXj/DBZvv2Ffe+2t28tYL7aSXvNUtF/WuPsmQ+EoBLnsPLteoiqVw781/Zw9jJTznR//IyuvX4tJMwFdN7hO/vOaArJQhjJNkKw/YbR/5LasN9lkXy/feG/6FXJ94XH3JVbZYadqG815km8653F/jaz5UjfiggKQTyyO2gcb/NM407NuuL/4F4Nm3017yk1iX9PAgjtPgdZU1Ch3QnUNDl3Tdh75tc9d/1NpYlxu3PY88y1ij5I3C+iRO6PCXCtJF3LsGVu+d//Qh5GpgJz7vxy1vTdqkALwMgGIxez8EAg+BoCH5V3Avu4/eZg9d/7dWjXHpY2gAPNIalicdXL1ftxj6IsNFauq3LCvOdB6iVe6b5EBYE1RRFAWV9LoABAGMzNqARg/XWvcFKAIvnR2oFNfTC5gUn86Ds+ZPycWTle6f+OFeeD4GNP3TfRpRzycnp92tFPpo/pxeSIoklwovS2VLxoFgysjpneSpqJe6/aZ/QwB17vaXWNzcYs98y19aSZPxkNlJuR6adwPFes1bRgj1+riDib6w4067/v2/Y6c95/vszKtfYmm97WBTR7gENopfVQ+PGdUjTaNndv3/+g070L3Pnvej/82iNZjMAB966haBC7uEFrApkyYeVKx7cId98c9/wk6/7Pvtohf9kCX6XFAtp4FC76I2FDfD2yh+oth3fvhP7aF7vm0v/6k/tfLGjVZRviiiZkLT/kGwhAbCMzCkQs//8V96pZ39jFfZhS/9cawoLBopLpadFqBShAe5U3p5VBukdseXPmi3/tMH7AX//q+suWELccmb/AXQgSZoRHEi3MIhiaqdoX30937Ezr7gajv7NW9DCVVvTegkuuKjTqEeClhi3dwevOmTdsPH323f/xsfskGriZJjAVJ3nzMVjARPozWIAtts4XH75v98p03oUyeA0H3f/nKItOp4xiXX2D6soNOe81N2wkUvxkrG2vUJm7RTRYP4KBiKogXh4mlKD3/j+37Nuotz9vy3/RfaeA3ArfaijeBPoXTivWhP4NHc3V+zuz78W3bqK99hJ1/8PGhp+3IpENbnh9HA4zdy1CNOrDZcsX96/3+00fKsXf3W/2w2M2VNokcIR1If+QTWUkyHiUWkdySVPm7k3V+1r3381+15Fx5nr3rB97oVkjY6ViXfZrLBJwNPJgdtXz221nLDHtz1iH3ggx9w16pw8TTTO4AHbaxmoy7+5g26lpdX7Atf+KJ9+9vftksuuche9tKX2DTul+IoXXG4tUXbKd9HHnkEN/K9nuf3fd/3udsWrM0AYDoKfsVY4Z1Oxz73hX+ym265FTfyPHvFy19m05OTDlICOcVDQgBBvVSi08A42L17t733/R+Ch2J+1W676alW8r/2GIvWsXeUyvsJs2YNzPU2gtRGGtqxlSZwUSYTUydbmtAzJKQ1AMQWUOCDyF3sYzZtQL2NArWqGOk1BYCqqfjDEBoJ7uKSZeVFXMCBPEibILQ95FxnBNLVcbuafYsw4aNGnzIWoWuJ3rtvpVZik8Q9HEij9YKEliZO1ldQYuJ66FreHlAI7sUkZSDs7TpxCZOiFYCYQNZEu5XncefmcCFJT71LE6p3bNEkaacQwcmUAP0++69r5To0RXPe08+gdNMKKOEM/sQM97R+rNIiD+KXVZcWLmI0j0ulGc64KNDeBvh1bkGP1gZOOH1aG5jYBFpYw02tjRZtUuvVGlrfx3MtP/L41EO8Eq8JWgZSbU/5dArNJBdwHekASgCfIc/1iQ+sPoLPrq/TsTRKJu+hDm98tr0ApU4vj3IkWFCK48Nyfj+k8TWa42vprc6laGR93DXU3UG4zj3lGfJVnHBdx+JUqALqcdInyPVS/rKqAXiPN04LbV7WuHytAsjz2E448Xi78MIL7NLzttkzLr7CLt7+DDt9+2V2xpXb7cJLr7DLL7zcLjr3Ajv3nHNtYmLCl5Kce+65dsEFFwA8l9hll13m4eKLL7aLLrrILrrwIn+mcadTTjnFgWfL8cfbtm3b/P727dvt0ksv9aD0ChdeeKGdd955HkdLWARgutY95VvEK9IoHz1XOGXrKe7mnXjiiXYx5SsvpVEoyrn0kpBO9Il2LZ8ReBWg93QfxyxAVRIsAHpNLaeQhVJHcJp08S389SaCjGFhNcx7rbRu0H1qfRh6YSmSPKo1UT56XeLlRMy1oFPmOXloQFvr9zR4jkPjr9trpB3JR68RsNayehVQQrGanElfRwqRbWtgWkVy+UhXwyTWAHSu9WEEiCMC5RAy8slrGv8iDnmXSROWkmgNG3QTci25gSaVozJT6pKQTi5jhguBcW01uSG4Ohor0XKasAZRRcEP3Epfs6ZeEQEp09tq7R9oy3+Nc0Er+VXIW2NRTfJtEL/BuUY9fDoDtFW4HmkwlzpmzitCs07gNwKeQl8C0bnWDGI1JDAiJqQoqNbwhfg6k6YIdZDFTRrVgp5XE5KOeOg+rgRsqwAEApUAOOPQ1FlgAEDwrCyrSpM05XIBGvq6hYCj1tCYHoFii7QOHMSR+xnJ6uEsi9qfKT9PF/IvyixrbBDw8XEmWd5umQG2AijFUTlKU6QbpxU9cAPrJLdmq26tZgs5a1h1Ytrm22V7JMU0buvrA22ASS8kSMQhi2b1mjgpu4K+VKAwMTlx6F6xHk/TAIp7RTqBXRH0u1hDV7hy+u2Be6vjFvkcWo9HZRR87R40Kk2rfTh/xdVXF5rUryhX41takqPB9qNxHLMAlefTCHjbmSxZB1dQsDI4U0PJtPZIQqjB7AZBn/FtAh4oXoUeuYbP3cDcRaBKWE3lNtYMVlgFZJBQVFBkvZlAvQEogCQClKpYSlq1j8WmLyTI2oqw2CIsDx9AljKXiG+Y4pwrUR39Iw+sh7K+F9RE0fRVBZXXTNxCi8ot6qHFEgiL3qzhJtQEjgClx8Wi8a8xEB9fAKmHBgI1o+4NhIu6CaCpXwMtbpGuhSKLD1WYEj56hmb5ggwApBoDGgmgMsK6ov6yPLH8Sm0sKJRTY0yiu6y8VY+cumtcS/qirzVQjwirUPyKyKNEnVLSjWC25itp7aLehmYaBNYAOXH0tYWoiSJj6YUvL5COumtJSkXLSLCOtETmSIfGRWArdVCgfQqAUhiDjIKsJ4ENzQBfAqgJRCqAR3FfaWTdHEpHXsqTJgoD1+qQAHvJUiinACmBlqykcF+0+PpL0Q1gOWi5VRfyVtxD5RC/GIMDB0gf1rWVAOwaCvzAgQP2oW/caJ+79x5fsB0B6FlNlhqyowQcAp3C0hFwKRSLdwuwkMzq0Flr7KQTuhaAFHF1Dvkg3zxTvkU6XT8hX4KDEGH1vQLQdK6P79Wo6OEykEMvJ7xxVFzd14TRoj5P93HsAhT19fVoKGxWH3CN0iOQEpi8houGEOptniu0BAuXCm/aWlhdE2lkU5wn6dgmM/x/XA30lHikJQ+t29NZn8DN9Z1u0k4oHmEqKxPC9SSAp/v6JAk+DhIypCDctDIBENR6iibltImjxcMKit+mPPTU0+WAhkAzw03KI5UFcFXSEF90UcZkHoLStghay5Z53Uc+5oY5Sd37WA1DAoDGORegomQZLlWuT6FowTNME4SiCr5wGAMkLCCWJQOPjDwzLcfATVManUvQAqZaG4t1UnzLKs4D5xl1ayF87Tyxxkif3u1D99B/Y9gHHlGPKfFZ/B7zvp0CoBSn6ZF6Y6ZPLR/p8O+eI9hhQFfgIOVQW0rxpZAEb1uBhuIrrs4hrqwivx7HPxR0H+tHz6Sc/PKpE4fyB7h02/MXwHAu4oqWQJvSjBXWwU20hLgqT2vVPIguJXG6dK+MFS8ZM1uzdq1Nbdlo8/JxyQOG0GZEHB8enwyKEDqcw0EvLAJNqndIV1w7WK2OO85L8QU8q+MfijM+rw5F/uF5SOPX3FNQB3k4Pvf82eF7xVGU93Qfh0s4xo6yZr3JukERUqyQUlK3uIxSlbAQeK5Pp+Jz2FBMk9uFAZLCuCHSE9PQQ2oWEzThV9dDhCND8TVDu4JS6YtmYa2YvpqA2wKDQ9yMkJIWuKMBYh9DwRWj1JFGpWVu+KsNgAL2JQh4TN4xChEjmEMEWF+CjLGWSvT0JZTZv5VNzz9Caime+uB+koXIUDl90mrDgz40iA5HX6RZcVSSDuWh75BrjVtKnZUP1fY4npGaUuWIJspKyiPiZR7Px4AAEdSG3k5xYJYGNjn0CDwhfqhDqH8W6kM9FX0IUOY5VhO9MzaVDbDAEuiIRT9hSB2GlDfE1XG+UQdwirJxD/29dijryYf454G8DgcpBs8Ikn+/Hsc/fIzjcVW8VfK3j0qjUKTzQFx35hX0QIlCPB6N4xwuM9AgpVUoaFqdJ+U9IX/y8950HFQKwKUvua5vtW0DbhqqrG8Uco8/sgAVbdURyl8Vin+e+ROP1fefkGYcPIafDz8vjtW/i+snBH9y+Hjyc/488ff/Hw5YfWwevnMJvXgpoVHp3UsErRVLE5QkhTnomCbH5HqdD1hpxbrUrYrGVkea4UuPR5xyTA+uMAQsxvnIFTTyxoQgXc1KaFMFba+STyXBSovpYWPOpMHgQAsJjgikGWHSKj1ptLzE14gSItKoDKWrkofyQlu9DpG++umBskaUCf2RpyO+XlWTtsJZaarQocWzkV7jjgDB4NH4FAS9xtfbO9Xd70vW9cpKwImVUqHe1YSzaCdEQ1xPrwNpiOJlA/r6ZLDoiai/eIsR5eWHNCGteCD+6XkmtNH6OvFKtpH4Bj8Cn6i7lnsMQjrlIzqcWAgMYnxkYfY1ZdRLb0rDujKS+T3OVCulrnrDqUHYgLJKpLzGr8gVPL7iKVAiZ739Cou+Qxk+XYTk+qiceKngb8iQHY3FKa2/sR3Hl8EX0oazQngzqLxDOUQLz5wu2kzzndRBcJYsVshb23B4oB0weH3WuSc+1O1wNa6H3sCp7n6mYAW5wDxVrENB98LcqCLNE3/zN6TV1aF89Os7py2C4jyZtsPPlZ4wPuv3E48n/356jmMWoPTpk/IItyXu403hXkhZUAg8DSv1cGR6KAghGhAwfcookD60L2GUHGiCoUKKeZBg4mgtnvVwr/DOogGWlJZnjBKUiYzJVJMLteA0xgSK4ypBZ6Ulf1fEGKETCJA2TQCWAfc1uRLLi7wHg8gG/QrXlKV0WsCbplhrSkNISJ+QzperaF2TJsaVbTggUGYCmGmcMQMQvC6kr2H64YVZ1MeC61Us7XFeId8u5n2XZ30BsOJr8B7gBni0kFUgHupQLKwmzUAgEhMf+kUH9ahR90gTPrWeDRAS3aJlQHmqh2gSuFXgf1lxaY+y6hGTHiBTupjyY+hUOgXlofJKKXEBTg2SI89HPEqlFf+SgFb6a4b1EADXurockIu0xg8eZeTv+OvKRn5YaD6beQwwDiacRwCz1o+Fhb1qTKkbHRJtq/7MRl2sOQjhmaaaZMRP4cWINtQninM/C4lwnQEZuAsdPaxUrVrA8qVx9GnpAXweAL4JZfagfZhhIWddZBQQShrwHn4gX/7xG3i1JV62c5MF8tAcPPEmzA4vDs018zVtgIDuh0Bc6EgS5NLfWuKWy6OgV1KtpLa+Ro46iA6toQvXmgKQkA4XHl7p6xxyTXWtfHy5D8+LkHjecfjNsxxaIuVP2WFNpwL0Aso663PCqZ6J97STT/9A33wysCP/038cswC1VJ+0flSzFUztLub5MkxaRDjmYMgsAjYPPxYR2iUafrkysqVqZt068pcPLNZOGzB0SLwBDdhH8Loo2jIAtkS6ZQRuuVS3QVkfQKMM3LEhPUKIj8uFwPYAQn2HvI+yLFOmPsC/QJpuuWWDSoP0ZXfLwsp7zuDckPPQz+RDIy6jIEsI6kpUtw5hCbdqCRo6WIf60oLyHxBfZaSUL2GNsyFu4sj6VcrFbeqgkEtYIguIwDx8WRRvuF5BIFZQ7KVSaivEj+soRk5ahFm71mgSoRa/qoweYYk6LFIH0bOMC6ltllbK1CeSwhEfmp120ogmXaNnWpNN/SucAdFK0xbEO5RW3/vW84JfYN+YB4AN+VncdUBzgJJPdISjX5+wbkYbYGXqveUAoe8rgCh9FD0E+Kwzyu3PoCVVu5FmwD2l0ZcnuoBil05CX64YpPrqQuCxvrqQVFr+JYc+fNeEXc9XX7kgXj+phvTQLte5D/2ZZrHTHjV4m/a1UBwlp3I5FU7oFBLAXqustAg7WGuAdgVQR3m7aQ8+xLZCR9Tpdu2cLZvsVc+8gjYYQF8MfxNPo7aWmyQQ0NIULTXxdW6DAZ1dHNbf0RBaE6d5SsJW4BZA0UJfQIWzZqGHMDx09rV+lKHJmcKagMlaHxjW6mnGfF/xOccIrJfFtS9Kpt20tEXliSblKXp87Z3y9zV4YR2eytKaQtEk8Fo9HvV0HuXf5BhfH1PHf3/3n1sXZF+76STrd/dbttK1bHAAjehguaA2S/SIS7PWXThgvYPztvzQPTb70LesOr3eaq1JW+l1bNhfxupAvVGWEWnSpX2Wzi3YysIeG8w9Zrtv/TxM3m1rjz8dAKMhegsIH/GHK4SuDbtL1u/Q+83ttM7cbuvufcBm7/4nK9XrNrV22pYX53zVetwHLuIOArtCmkVbWYQe0TX/uM3e/nnofNzWnnAKZfUs6+xH6OcRCARv2LFBd5mwaIsH9lhncZ8t7n3Ydt/8OWu21tn0upOss7SExbQAUgB3CMeo36Eec9afO2idg7M2mj9oj936Fevuf8BmTrvAAaqzMk9P3cMC6NjxEwh2uWob8wXbtXOHrcztsaVdd9m+275o022sl7XH++zkuLdo6XAZPpH/oAubF623tGCdA7uh/1HbfdtXuL7DNp50BsqnBdSzKBBxqUMGfxN43V2m7vOztjx/wFb2qR5fsCmNy6Hwb/uxHx637OHjz//XXwMwDdp4q61ZvxGIwmqmt68ADuWcnhmFKaHY2mwg7mthdM92fvOzlsGL0y56JtaNXGF9i15bPaFcAkYULUdx4pUlgGVkK4/cavvv+oZtPvVca60/CdnRwl7KQXurWGJllEvDBJkUdmkRi33JHrj+n/m9Yqdvu8TH0SrkX9dLArmtAHRVFpfACuQv9Wm7nbfbrvu+bVtP3Winnr3VhyUSQKJPWV3aLJGydwGubt86yyu2Z99e+9a3vuUgozlGemVfAJVCr6tFulo8rMXCHet2enbbbbfbAw885HOUNLFTFpcAZDW4ac1eWETctwMHZu2rX/069Jbs0ksuM01v6PcFegAUZwFWj6ClMwN+L8wvUsZt9uijj9rmzZt97V5BU5H/kPIOlUO6gwcP2le/9jUHKA2e//i/+5Fxyz59xzE7k/zZl5xue4f0cNXTrNTCNMonrKS3WpW2laoxAqPXm13rlWKAq2FNwGdNei/WynpL2sdZUpvBPqz4VzH1xkOvyH0/skHT+tqtNh1Ya/Y2q9eXbb5xkY2qbXoPFLasV7ThNa0ON8EBSixzXKQFO27lLjtQWmfZ1Ak2qk3inpjPRdIOqxo3FDs9DY1Gx2trDtykL1vZbPNMS1obrKz1ZcTXnCz/tIV6OeL7qnt64lFn3tb278fKWW/DiTNNn5stl9VD4zZhvWnQuoSVKBcgpfev0NtVl+636Wy/zbXPsrw641MBcqzCM07farVX/LZdtyeyM5KHbOETv41Sl6w6mLXN3QcAs8zmN1zmFg7ZU3etacNdLMt0x6rDpE/kPpY6Vj2ww9ZWD9g+O82Ga06wOs81QbFc1dukCpVQ3eXVil9Ydlgim7vQFaGktTV2741PXeryjMsusOVkwkbNk23qpDMtrdYBf019aJKnpnPAdHdD5NbJnUTRb/kEgJFafdvLrNSYgF7arCqaxRhgBwCRy6clMj1ZT49+2xr7b7fBhvMsOmG7tRpyhQGmRsPrLO/PvxVFGSWsn/Jg3nbfe6PpC6Qzp16C2G00rU+sRYAaVlJOG0RuAWFxulfTs5XHbsa0fdimW5GdeuqpNl2fcl5ENb3UIF9ZkCi7PsinsbED2nbqsbDt1EknnWTr1693vsuikruk+Erv40JcqN4PPfSwA8PERIs0J/oUA8X39gIcFC/E11BB6ttOaTa5np9wwhbK2OB6EMpAljgXsqqzgOihhx6kLE1QrfhOMwLOIq6fqW0Yj8KqlEezuGQP7dhBGVUfGvw3tRbvvO3P81XwJ1/4KmuvaSMwWj1PzwVA6fV6TR9wG3WsT++WDJsWP/aAHbzr76225Sw77pwrLamvsVqt4QAlBmYIfEb80qCOqd+nZ+7a3hs+YYPeTtu8/Qettmajg1O1WnOwKRpda/dGNJoWrPZnH7OlGz9mtvFsO/78qy1vTntjBsVGSWlINaLGU+SvD7HKerf8PZbOXlt/2autuvZkq1VRjnoNkEKwSEtbu78fkSZHQTpYOHu//ffW3HCubT7/BWbadioa+BymiLqP9P4eF1afHtE4E92bVefvtk0nb7T2+hPsvl3LKAaCVW3Y8Rtn7ME1F9k39pqdGC3bWbM30bMDbFh0Czd9wq54+Rt4cIkNsMIOLqsM6kHQ63UtLE0APw3g5MmyHbjja9bbd6NtuPC1Fm063VoSWM28RgkFJhgztIfGQxKALbHB4qO2dP1HrB4v4ILPHBGgrrrkfKyrdTaobTabPp5OpeobDlSrLfhZw8qhZ8YiHCbKV4AZ27q936K9sSq2XOWum77AIIDSq3W1sywcsBsLcsUBqjV7t80s328LE6dZd905/l2rhubxSDboJOSCyk3VsFVOvhV94mb+YaumizaPe5dE8FJ8EYjr9T10qYNIE2RCWklhLTrJmQZggYWlDifAXslfrmqnXqE3Ykg6PePQW1iAQXOIChBS0HUAKAFtiKyzQCb8DsEHz/kt4NBRnEN6vXWmiLH8ro5X/Naz4rfS6Aj3VNZh4JJs61wcIZdw+PgedJbhidxDKPq39TWDCwCoUWOLXfzWv0ShQX59CgRB1Ota05gLRr0GeNUzDdDaziM3201/8zt26rN/0E6/4kUAFICmGdc+I1iv5RFGBD3WJ1ox0aPeyG786G/ZAOvjih/6U7PJ42gQhAyrQPNctFOFhE0DsvrYF9pjyex99pX/+VN2/LbX2AUv+FEbNjVhDUuC/JVG8CRuuoIQ5Prc99k/t913X29X/7s/BmhPNE0lLwukvMMf93wyFIiPoWbluG//8NuvsZMvv9bOe+mPWYJl1yjj9lBOKqCl+lUUwQeo3d0Y2GS0zz4wf6ptbuX2xpNH9tBBWTaRrZso2Q0LkQPUqROZXTmlAe/UZsodW9h3m32p+VxbSSN72zkj2zNP2WCs1wOBltxqQajG2BqdyB657eN25z/+ib3y5z5qw5nj0DHKIL7P3SGNDq8HQK7PreS9x+3b736nTQ12+aYFdx/hawbnX/5M7I+NdvbVr7FTLnm2DVHYksDGrSf19poWEqxX/9wzvfwdH/59XOSuXfGDv44Fq8XC8PMQ3SgZFoSvU8Qi7Wns7N7r7O7P/ZWdcs3rbfMVr/JxMU041KeSEStXuvCBPL1sGFhtuGDf/Ls/t/5DX8Ya2mrt9rRVG034D23k7wBUwn3OAW8QSONEj+/c7S7SVGvSl6Q0Jhretg4MY3CQYLjlgWAsLC66KyVQkMu2Zs0aBwPFF0CNoxNCfA2i79y5090r7agiK03gpvhFCGmcODquxJaWlvyTK3okmtatW+dAp+cqt0gjmhRkkT/wwP1elp7JxRPor46rQ1ceH0bMzS3YI9Sj0WzDl+yIm7P+a49jF6Auu8ayxgl28U/+lVWaAiiZ8lVriFoUfED/qtf0EeDRQ1kXH7zBrn/vr9spz/4RO//Zr7BRawKh1fISARSKA5M1LWCAqY6nZ5V+bl9/zy/aytw99pyfeI+Vpo+jQQRQMuXVk8jNUWPQ8DRG0o9ssO9O+8Kf/oiddtkb7eKX/bT1WwBmNcfykKldNPhhgNInP2786B/arju+bs//mXfb1LoxQNUyTyNXSuxXJ+WfMyaUhj37xC++wE67+pW27Xt+ytL6hDWhqQpNifskJavJUlFdUJA6VkV9tN/+x96TvH89Yya3HznD7KEFc4D6xn5zgDoNcLp6HUo5HNm6mdTe/2jD9vTgKVm+/TyErSP+StFDjyuLiI4REASglkt2z/V/Y3d+8j/Z9/76Z20oXtXgoQOUBF41F9DSEVBvfc00XdlnX/+Ln7Y18eM2KFXt7pueuuvsBZc/2w4m6+z8F/2onbD9+bSZPp+iyaXqn6X/tAPl60uaehGht3Nf+++/bL3lObv27X9mGa6UaNayF9GgIGkWDdrduEe6lTv/xb78139g21/zk7bpildYW0tZyNsXeZO/bCjNS1MfVKLC1f6y/eO7f9Mm5q63//BL77CzzzjN6s0WwKkVC7QdXYS+kS9XbTTAvVtasb//7Oft7z7+KXvRi15kP/B9r7OpNTPwh87LeyFqIqI4tC26XKmHcYve9a6w4eXP//zP25lnnulLUw5PsJQ9IrAP4KQxoI9+9KP22c/+gz3vec+3H3jjD/hi4WA1BkDzNqMcWe1607Z79+P2O7/9O24J/9Iv/bKDrc8Ml4cgRnk5klOVgTvc69vff/JT9olPfMJe8IIX2A/8wA/4cpuiDKdrXA9ZVYOhQPMx++3fURncpEO/9SjsLOyidSwe6hVh36HeUda7lCKsu8pWLT3AKuAsYNHnfitVLX+Q4nCWK+jrrnQO8bXEISyPkCKmhABgnjfx6g19CiM6FJ82DYAlIOIaO4a8Q3m67+k8rc7hdxG0ZCIoPOayytR94mmpWqBlXC6hWM4R6hFThugc3/OyQx08ra4JziNoeej6f7YXTexypX5wsWTvf9Bs6zqlhQaxkQNDA9fGrDlp9r6dAZx0761nq/cEAAWaokX1EG3jc4S1qvuiJyzqDSDuvHXaA49DOtVRdMMblHm1e3CkY2q0aG3r+o4rvosOdWkS2tCthdsT5NkiL32VU5uRtrRTToobNupzHXbeaUJXGz6ExeHFGTeOuC34rw6qjktWL49sgjya4kOUhoXdvjlp6gulJwi+zlFtBjpXGhM2sXa9Ta1fZ+s2bLC16zdYe8MmizZusgau9PQawswmm1q7AfnTVlW0Ubth0xtmuDdja9eu8TQt0tQI69ZtsDXcn5ie9B17pfByjwU0sqDWrl07DjO2bv0aW0/w63VrsOKaNjMzDZAMbaLdJv6Mf7BO6dZpA831691CWqcNNjetJ89Jm5jQanrJXk7cKadn48YNnreHdaJx2jZsCGWuIY6WsOgQMCnvgq715Lt+/dpQBkF5TU9PedBavcO+69N/HLMAlcnfMfnBWmOlxgwKUHdFQIFQVCltsHYEGEQHCIqtgKSctL+Dlys1QedDoMB9xVUZdBIOBEpzWEmxTuhtw8JSPZPrp14q80bXZ0ZES1jTNVZS4gf6uEf8OhqnMrAtnD63OHRG6QIAhHVgBRiERalAiv6TTi6q12NMU6iHygm/PQ3Put0lO/CxX7E3nQlt1OheQOpb+8w2T5hddXxuZ68xe8M5ZsfPmN26UrG93QBObzhhwSYxJzvgSADOAmgURItAK/DYP1YGQMnqC5aTeLy6o1idTnWkUf4Ph778qc/gaN8t8bAB2NTFZ+oHclkFl7WmzTc9P2wdeml3w+G/u9Z0VN45ifcqW+vqPC8CVrf4lpOuos80k7auJU78roNoFV8TVyNUPL42Bg1tGTmA1dKupeSVterWBNnbEPHgcmzv3jFvD2DJtRtYz80m5WrL8jJlwCsskyq/KxNV0pSsQ8/3mbmuvWf3PPnXrIwu10BefUBRY5CSPlk1sp60kLfdahGa1mo2rIVb2W61rYn7JBdK87FKqiz8qpO+1azb5EQrxOW6SV2aAEwd4WjRC+kbTRGWazmS1dQgQCvnVqP9hNCstzzUEAC98NA0DC3LqWndXbMGOGrxM3k3tPGnFjZrTZ7W6IV9+GStqdvWnKujcRyzAKUDsfGeRhapL/RUcAVHkAQqrvTc03NFUnwEMYyLhLEJt0TGiu6/FYijfPVqtCjHXRVCAJFwPpS/7ik/kNAHMcf06OWV8g9B6UKQRRYsJ37zQ8VQpN/3eCqHc1C88NvjKN24NxJ9Hk/lr04nmlT3cTq30oj7wF132HRvv71ya25rkeMz15TsABhfQSmuPScsQxHknzSR2ToA4NVrd9nCNz5ic7iuRR2cviJ/r1v4rfr6WAT/VFYBnAIunQPAh7hK418B4MJ5TL11PtKhaYcSaw0mSxL1YUHlHeFqa0dhdIvMyYN7JXxRtak+2pUrb+rucVWm0zOmyUORRkwPzBcgKA9ZnGpn31JfoaazflOW0vBc8RWnCkNqEKHNOzRof8vd99mdO/fYSl/fLA/y4AvJdRZfPNDexNci21379tpNd99vD+/fg0VWhT7AqAzznS+BJ+Krv2hZFfSyYvXvw2+VyZ/z6mdywdx1IwR3LLhkklN35dRmXOuZXgCFc0ijs+IcDiGNhyeVo3leq3/7JqGuR16do3aoBsfmQSO7NMFghYIRCvAvBFfQ0NhhzRRCSJqwjiqkCQscUb5V6RX4qy58XI7ShvirQyinyF8plH9lfA73wgLUINCyMg6tDSOE/BXIqMhjHKRsoimAU1FGCKIn0MVv/XKBUdD1OA9Pw0M/NKid2/xKYqdjNf3h1Rm9o2ljGf8mtqwyvRJfTkp2Vju339jWt+ve9RP22OP7Pa0yEgg5n7zO43KKsgqaVHfxWan4ExQh1D3EO1z//5vD99gjrtgjZuisagsktHzPg9hA/l48cUSUXqXnItBBSHG4r3hFGgemcX5cakTHP/an9MRTGc5L4nkAnLxMgDWHB5msRSpRJmIjQ5kjrBHyeNFzr8CqwEKi3g5KXn8RFg7xSdxpYhmqPU4/7RS79PwzIJP24bnesGktaOBgiP9/CkW81efvdOi5d87QtDqurhUKOSuOcC/EL9IUoXj+nQJPx9eh/kdrKPswd4+1A8lC1LkIjesbUXLhg9A60/X6W6PxPQ3q+nPS6U2L7itofovGWDRvw+MhIHoe+KkhTy1H1tuZ8LxIp+ETDXSHdOGZ0mVZeJOj+P5dZnLR77DBaHHWM8oQ/VImiTeRNAcppNVr5lBOqnKUT5GfMpRWjbU1xC9C7jT5TGTqtQEQUq98ylWvsOf/3J9Zc90Gt0b2dyLAKNRhaz21F88MbdvEyCZQwoP9kt29d2AryysUpOYXTYHeQA9lEDRA7uvOdJ/n+j57JnoowOsJQYfD+LfujwP/nxCOeLigh0NxVHUdqv7hVJTt1+GvrC7xwu+ILp1ldY4tzxA7/PM2HZ/9n9IR9Fvx9e9QCsXxAG9JpTK0EagWlmvdofikAfvKoO87QRfxVx/FPTxEEmPpcWrQCE0ftQ+8qmgiG4cr+bj+hxVf4P7EezqKqQD6ufr56nNxiKTvRFuRz//uKNIW6Qs6Vpf35HtPLuvpPI5ZgGpoJxUaTJMXe3Rv2nlDg64JjaxlCpH2iUMJtRWbNKIao2jEy7Tin15PwCTlH6FYWvagZVZ9NCnqlU0bXaaZJs7hQ0cNH+/SW7Fiw0iFoa4pS6+440SvobXOCdAcNYPilrSGyWxAXr5BJul9iQhxwh5u0EWEMogyyhu+Nk15ajKy8tPSmgG/tbQipg5aWiLw1OaRUsOItBQBrYqjvAGGAQKiJSXUX9MmHpjL7S/uKtuH5rfaZ2vPsb/a0bQ/vbNkj3YC/RNYBM+eHNjGbGiXtfr22s0de93psZ23Dv621kATqii6UuhJI4KWjSioHuIHfBqWbaDXn9A2LE9Ymg99SYivb6SOA/EgzTy+0qudUpRQ67S08QHk++TSIx2yQ4UEeiPm38V2/qDIMCTF/EvI1KcMjO+7xtMO2lk496kWol8FwGpN2VI6LRuCML3F0wzxXG0gRSIPoa13ZNAqzNCnibUfouRIv3Vfz4Xy2rxT+eq31qmlpG2iiNPdZUBq4MoeXs+TXrSPLRAHRcrS2zetMZyMU2ssd3wybkwhTpPqrHiih3OKjOha37FXfvqtkCRa9xYmUoagKoQ4RbnF9eqg+wo6inKK8OR4el789rir4uu36iFaVqdTKJ7LitSh+h+N45gFqBLmcAUJqcYrVo8HBKwFzmiBlXpDAIo4g9hKwy4gEKPQPXq4oVXTZaulK1aFsWW0PqLHK3V7Zl0SDLWHW2babKEy6tGJDhB2pekTn8B9LSLWHnda1Bv1yUP76Q0HVgUdokTfmR5Cl/ZKW6Z87lNGBY0uKy5pFCrkUYm1UIvyRl16zb7Vs55VoLECDWWPT1xCJFTT3ngJdRkoTteinLxK0KBrhLSckB9lVXooZxfg0hgIZUzjmtRpQfdwxkEf9lxTRWF4nsdxAEoOWYE1gG9NNLTnnWz2t//zD+17nr3NzpyKrQ4aVIlboS5e7x7X0KXfFfhdGa34oHE161IP7UvItWa+izcEtYe3CWm1k65mt0e0gfbq08CxvuhwpAP8RIl5LqXFZBuhzDqDBpxREljoe90JCbmnLzdEGqgnyMTTfLaM9kwHKB5gprOmJ5UENgCPAE/bPenLptpsVR2GgEsT1JUuI70WCeus3yN99YGOQGNIcuMFjgPapRP34N/AWqDVay46306emvTpAgpatyZldXDirN9agjNApvK4b+fOzNhLzj+H9qDDpV2HdIZScMWXUit+TD7FujrPkzJ1X6//wzmk0fifyhBg6H5R/uqgewWo6FAZAey0Uefh/FbH11lxlLfGlwpQe0L+pBki08U95aFrxT2axzELUPPVDbaUN00LfYe9rsUocS/GdcF6iLM6VoQWfZatQ+/f4XoRwepHdayk1FZo6A7KRRLSyzKo0Xs1fLFoD4HtIHgrCLhmEA9LFVtEGRW/zz0t/3BLQFZFAhQRZBV1UJhFlDUp18iXPKCrR/ouStTHetOC0yG0Kb7o1OLVBXpzLXIeRFVbUnzokYWihbyDuEq6GvHLnHPSUDa0L2nNU6lpKyj1YoorhqD3AAMtcHXLSwtk0yo0A94ozZtPWLbnzv+jnf3N37Lvn3nM3sjvWJsqUsbelch2dJ9qvsg60Hqr1778+fay00v25rNSO2t6ZOvqwQrSQtwelmEPugbUtTuMbbHXt6xSt0WtJ0NAxSvVU/QH/tacNt3rS/kH+wHxef9ygj7tcqRDXplG9AQcsuZk7YxilAug02acAhsP1MUBSyCONVMCuXKt4IUnAaRCKK5HKl/x1dvTrj5NHHq1VVfmv3U/gFIAQIEXBHFWHgFQxe8UuZAsda3XW7DyyqJdOD1lk8iQ5iZJQRWk3FJUgYjAZrGzZN3BiiXLC7Ypr9hZM2stxfJa6S3DNy3Y1VIlmWsUS1pflEt+Yc1bWPdWBN0rAAFUOwQMh+MfjhviIz88V54CGYUC/J6ct5bOhDSH66KXTSqjoGl1/CLovp6LLtX7aILUMTtR88JLrrIDKPtJ215ujTVaczVjpRbCVJnwOS0VfQ4Fy2RFGwANuH7kDlt+8DMWrTnXjj/vGTZqrLVKvW6NSK/4q6SrIM9YNP2GDRBwWQE7r/swMjJrGy58o9XXbDC9yq5W9bZCb2e0fAOXEXDqJz0XpP7+R2zxWx+28vEX2OZtz7JUm4NWa1arhLdIqJqPM2gmNdFJ17WFb37QRivztvbiV1ht/an+XXAtQwmfKy6hF/TcuCsJFkgZH2N2z06bu+lj1tx8tm2+5AWW6M1PTXN32ijzGroU6lJawkUEtAETfULlsW9/zrKD99u67a+xy5/1TDv93PPs/nvvs517Z+2KM7fYDz/vAqfrf3/ItR3Zjv0LdveuA3bvY3O2Z44ysEyidMF2X/9lGx28wzZd+jqzLWdijanODdPsfr1F0+G9O2CtpQ/Lyzts8Rsfsy2tuq1kM3bnbV/0OKuPZ11yqe1J2rbhgufaqZc/h0pq+QltVm9apNfkGtQGpPvQEKPQK0sLdsv7f9Nng1/+pt+wUnO9aalLraG3UuHtlcTZt+QC5Hp0ClqwvPu699n6Z3yfnXbVy7BuIptoYJ232uZ7GmLtaFeXHr5qCQUtrczZlz/2FzaR7bY3ff8b7LTTtlqzgUUVpVbFEitnNdostJtcsG6v4zuu3HzzTb4BwUuvfZnPbRpVhjZRgT/Dhm87VcPyXKhg/XXoNHY9ah/64Afdinrd615np289zfQZYFkvqrOmcwggfVtywEJfH/jiF79oN9x4k51/7jn2ipe/3KYmJ316glpV3Ne5qLva4dFHdx7auFM7x5xy8sn+5u7QIPo4jUA8fO2gZ//4hS/YbbffYeeec7a97GUvs8mJCasir+IrpJKAP8iRvnqgz71oPeEH/+bDXp4e3Xbjt4j09B7HLEBds+1sm7eWLZZO8W+lRaUpK9Ux9QGoSg2lSao0IMgfJSh3ZGuTOduQ3muL0RZbjmawdCZ9vklNr7yrgA2Ak2QruEdNzoABgr8peQwBnbXZ6oU2yGvhNbdePfsbMywPTH1N75BpqzGSlnXsxMF9tjdbY73GZtOHb5X3oXR0vHKl/BtDWFcZvsYJg3vdhdxXPQULb42DUqlS87kzevtEH0dvilCpRwVssEfs+OReWy6ts8XycQArYFbW5FB9A33atA8Z/ippBoBgGT7EtibebVPpXpt+5g9Z79k/a3ettOxlG+dtx0f/kNxL9qe/9pO+S+z/9YHSLiwu24M7d9k/XHez3Xr7zVY58Bju4V7bH51hc5Vp72mlUNqFWRuXStx9bAdrR+M5A3hyXP9Bm8bFHdTW2R03PRWgrrzkQngybbu7WCvUU7smR1ELl2yaurbgE1YDbnIKIPm4BzzbtHwXrmNuB9tnO9j4G1vaIGx+qblFcBSF01cLYmC0OXjETq7O2qOj9ZS1BTLp3BrKW/E1KI01hXZpqUuEpVpNO1ZH8ta2KRtXtxlpd2CMLvIFndwtlQWq4IqpEiUbzRZA0kdOw1hU8XZZKCAV07Xi+ssS4gso1KWl0BoAQAgQXLJD8Tn7R+eIr/prgbAsl3qtfuiZ8ijS6ijU2c9+m3xIr2vxhweHaFFaj8s/fV9LZegtZQ+PpVEX+IU4BS2RAr917S92CDXiadxKHeAdt/wbWiy87bJnWX/qRNv+yndYeXoNDT+B8YA/hRunpS61BMHJ6V3p2bJe2ZKHb7M7vvgXtuXil9splzzXkvoMQAZAIVp6DZ7SOBjTpq8ZJPRQpWHH7vz0u+k5dtlFL/sFq2p9mcBsPClRIOWCiNJppDdGkHqzj9pdn/jPtubMq+ycq19haW0NygFJtLvmEemNq7jpA7Wy4On99vzzX9nuHffbxa9+m5XWb8XaoomxijSAKrpwbFwAkQ7LcSG1/fbXPvCLdtxZ19i5z/zBQxt3amJiTt1HKivXwmLSYkVWcBfu/9qHbKbdt+7zfsO+frDqYvd9p6W2MZ215V5urzqnaafPOFv/fz6q8GEO3/TW2x60z33mozZz3quts+4kazk4UXcFr7dAWUpLVTinK7N210d/zxq9x6xXadndN143zvHwcfEVV1o3n7HN5zzLNpx1sWW1Bm1ctTourjaD0MytSN/2wsKUBSUXbc8/vcc/vXLmtT9ueZUOQnRAiHaxESFSKv+4XDyw7gjLesc3bP/Nn7XJ855v0+c8z5qyCOB9Xm/5FwoEUPossV6GlAC1cmfO7v3G31s+d7eP/0n3fcGv2ou8gRKUEeIp1wGKBlcQWDuIck8g41bKWLELFSvOilMMLitNEVeHzkUo8lccBW1eIEDToTlMel6kKw7dK/JXWuUtK2w1CBbn4rny1lGUIVevyL+gU3H1aW2Ng+kQC2RBlpFl8V8biNx6hO3t/7XHMQtQ5132XOu3T7Jr3vrHlrYnURTNiIXRAhrNbk7kfuGPy+AeVq17z432lY/8jp1+zZvsvGe9wgZVemKsmgaKrfkteuuFA2IRcfVBtwgBvuGvf9/2zT9oL/53/9UqM5thNMrvM8bVcGoUAj2DJhSl9LDdgw/bF//kHXbm5S+z8174/Ra1ZakRF2vBl86QRm9w0rGiauD43k/+iT1w18324p/8PStv3Iprpx6/bHoJHQAqpFGL+8AuwPnBX7/WLrjq9XbxS34SF09bmSMoVQQPNzIFPH2LKcBJnz6OukPrPPol233iM+1bywAm+V1zfG7P3Jjb4yvQBU0ntTN77ckdF7L/r4fy1RcZv/Fo2b48N2M1BFWLnjWHCAyjNuKVLALqQSgtzNvX/ttP22TyiA3pKO65/qnrtM674hm2nG20C57zQ3bypc+zGJdFVqWsXp9fA+/LeewumD6CN8TVufn9v2udxXl7wf/zh2b1KfgZLFhXarlH5Ku3e/piaCehze6/zr7xkT+x86/9Ydt02StsQrP7xW5c7KoASjCojqgEwAB8Tfh/3QffZbbr6/bGN32/nXLqSVguddoL9454cNQ7FaDIZWN5Zdndr+uvv94u3HahveIVlIFr5O7a2EoS393KgCYBzGOP7cL9ep+Dg1y8U0/FxasHRV8NbFqoLhDQ+rrPfvazdsstt9q2bbiRL32ZTU3hIRDfgSew0w+BjD5o9/iuXfbe972PvMze8IY3eBk1QKcAKgG5M4vn+nZVF6vp85//vN1xx52+UNhdvMlxPdA5lQFYBAtQrif12L1nj73nve9zOgTit97wNafh6TyQgmPzUNPWaRzTan60rNpMfdFws2H03omPR9WbkU3KVOd51iAFjRNpTIRQ03o64lZxC7WEo9E0a2v260Tqy0XquFk5yFPPuvTCuEoAE16GL6HxJRPNEPCsSEOoafsnmUX6riW01FqUCY3NMjRp/R76ojVglNtECeqiATBKI2jStzURQPXeGquq11PSQYPoqudeJy1UdtprNavjHqKS9PKUB91gswObts1qENoELXsxyq9OE864xL49BictbXn+cZkd6NEbNjLqk+MmQ0GGqfOvOCTL+qzKyWupF0Beh/8N+K+6NhriQRHgew21bMoy6bsyROMNGp58VDVhiDYb5Vr60cbFA6AadYtahDbKRIhauGNUtqTvYtXa3lEksKXSmCSDNu2CYku5kY1yC/5xjrRPH25QudWkY6pab0AnhqtWlkBoXIj7PrO7gSUL86tqABSx0mh7OUPit+pNO2/buXbR9gvtElzRKy+/wi6+/Co6jmfaJVddZZdqc80Lt9lF27bZqaec4m7lSSee4Pcuufgiu+zSS+yK7dvt8u2X2RWXb+f6Mtt+6aUef9v559lkW2NgZa7Pt8suudguv4x4xLn8sksPBcXXswvOO8/OOO00ykjsuE2b7OJxuYfiKp3y5/pS4uv5hQBZC17qW2Wi9ZKLLnSairiiTfEv00ae0HvhBRd4GQOA6pSTTiTNReRDGp4XZVxxxeV2+RXaXPQSu5D8tANxE96Fz78EK+zpPo5ZgJJtIZtHVgYAHQK9NRjjCqCNHn2Jgz9HIVAaX/zr7hkWB/HALp9FHUJIKyByS8njqwwCXNCSEjoY8taaLOIqLaChs8oVHbKs9A5bE+q8J1JvT95hF1yBIpaRaCOdaFIZ+CheF9EXaFKeAieBDIBDKNLI4hPYqodXz6dZ0QGcAASAzNcGqi6iSXUhKM7Gamxbp8yetyW3F23O7PEOabSWENDUWr8RtOzG4vrXHBo763WXbM+K2iSU7TxzegJN4rfX261JKjGWrhKWx5EO/yb6KHZLRl93AGsIOT19RsCNV535XReP4U2dOGGaQYJyk4b4vgCbjkFg752EgjoYrceDTpoE24dOCXowtpxWtZnKUYcSgq4pu0K5BLn4aoBqXR1iDTDBGgfwStPTthNrtwvztRhX6+CkoHqpovF8bQqrb03pvtbUtUl3KIx/65nW0im+BsQVX3kUzyfG8f3MvZbuE7S0BPOF+mldXN3LL+J4vopLPh649jLIX0Fp9ZkWlbOaNqX3dPpN0LiYtjr3zW0pR3FW06L0YTPPcF0Muqv7EkgdjeOYBajcwQZTHWGX+ySFdEWQsGKlFCBCB+HXei7LRotYAxBI2CWoWvgYevWQBgUag1QJi8i/OUT+Wvx7KF2RxpWcspSGZwHUggAHQIGBUgAFCb+XV5Qj2uR2AFCqB3FEawBNWVLhOvwOafRcY1lqcFkeAoWQhvJQJC2olQIWIKW0AoLHbvmKtT72Y3Z+tN92LRd5ikcB/JT3zgHgKX/v//IQQJK5dXFuHl5p2l985np728/8tN38eOz5i2dez0NhXG/RKyAB9Yvxiu90lDLicI6wpLSvodILpDBusBThPdajLEDddzB0/gNqBH1+xtdkii+NEbxR4LcCgCN6CjrLtHEFvuLVOT/FuwBklKMzcQVeCgVPtdxFa/cEUrK2K/WWfeZbt9l/u+6b9rgPIocFs1Jmre0UEEhZpdhFUJwiFL91FqCpjUkCLRXPQ3kJVAQkRbwijb+hJLLYKQB5QppxnCLNIZoEHICGylAaz3scp0hz6Kw0BMVTGapLEX91Gn1Hy/MfBx/oJ77cxf9DU/9/Po5ZgNKgTLCG1BuLaWMgkBKPBc1/87x4G4PEE/Q7AIefPY9x/HEIz9VLirWAlA+WBsEM6QKAhfgBKPRb6ZQmxAv3fKEt8aRACh5vHFfXsrbCFxDCvSLomZShqEe4r7zVE4UGP3xP5QXLZbV1VuS/b37RHr7tG3ZgGZeK9JJNr8O4HIUFzasaUdj/5tAH6jSgqtf2tw7a9sXltn1sX9W+/Fjd7tx5wO554D4KHLeLlzGuh9d/XI9xewigdEhuv9PYF/aAu2AZCpFjNeWACeYOeUTupvuaEuqaU+ecnxpQ01iH99XcV1xTlQAw31i1hgwAWniMnIlLuoxoHl9luLYqP+gib7nUiqdyQhkhTuZn0ig6KoK6Q1PZNp9xinXWbbAO94qxIndhx9c6it/FveL6yUEWuM5FHkXc1ddFKO6tPlY/Xx1Wp9Xx5LyOFIr8i7A6XXE+fF3QJxqI6/GP3L5PxxFqcQweqrdXu6h70T480C39dN74n/HB9apfHq/Iw8+rH+pY9bBg/KE8ddYjd0/C77BQViwbv+EbZ+ox/Ln/Cb/1SH9XxdO1Hy79Tzy8XJ0Vz4FTiRQo0fPUQCX/9Hhcjo7Duh9A7TANOh+K5h+3e7jn0yKPeAhEFpeW7cDsgh1Y6NieOLJdPfNJsDokiyFfzzaUMz788vBPf6agPPXFiFCXpx4JQBEDvJpGkmBVUCS/S1zjlpIfUAjAlB1gxDoHG/fla5bl4dMgYccYKY/4EwaAtbRFH7vTqEjGc32NU+++UuhQvgoOdFRK6T1fSPTyyMv3zyPoM7/qL8q4ddrIYevmGepDRuqkSL86qK5FKO6tPp78W0cRT8q/+vfqoKN4m7caMJ4cZ/XvYiC8iKe0xVHEWX29+vfqY/VzBeUnPQnA9NT4R+N4qqYcKwcCorVp/laIs8+xQVC0fkqf4NVrfD3z+UYIkVa4S/HVFvqNMRACz7XGKdH8HE2rIQ8916LXAD5lf/vkr2c9T+Ipf/IuFhp7GTzzBbMEP0OT5vsoL19gC136kqTierljGkLXHxbZelBdlMZpX1VGQZfL0gja9GqZ+8qHdP7qHvrjWGUpTaBJacIhukLeXo8x3aEeBNLs0n56AMB3PChcwtxdWLSrKnO2BtfUFwf7fYQUW0LnUI9QP+WN0RWmVqyquyvVdwCm4qjmWnIUY/xoOQ0uHnWqkYH2H9SbyjL56W2c78lHnLCPIfGwSH2/QcpQPI9P8H0LaTvffJVrbX6qXWI0LSME7nlZ5Ks0Cb+pQJk0Xp7KVr6Q7ctdqKvm/ui1pFpR271PD/tWp/wCNIqwWpFdlsbPV5+LoKOIW6Rf/Xx10LPiUHwdq+OvTl/ELX4X16vvF8+K62IKQ3FvdRlFeGI5IWjISb91FGmOxnHMApRbKKiEmODAhLAKZGJCIiXV4lCfsS1FlAzBOFeaEFdg5AuGFV/gMcw8rRaUKr7iOQgKoLjUPcVPYuJ6/uO0sRZvhjQ6CwSkd/7mgkZSXNHlZ6VVGR43AIXKwHehAN0PtBWAkXgdQh6FgvuUA7X7OH+9stdmkB6InwwFCGMwJH/nE4ApENRv5SGehHpzPa6Lrh9fxkr6DoPl+t75QmsTLqS+7qCdrhbs6uaCramIx4G3Kkcva5y/h8oJtIT6h3uarOkLYqUj0Cfr5khHhOlUwe3UJqXawblC/SJNdRuQjKBFv1qyojlfvnRFeYqdhaJAi+/2q7bWVBCdY/FK91A6aPFJitSoSJMDRGExr+IHWpVeUzZCHaGXoB1YlF5TUmIqnQkYh7ltSQbWInFKIxbKrVCAja71bHWQ21xcF/GLo/h9pLhF0PMCDAQWCkWaI8VX0PMCOHSteKvLWR1W51kc3ymudu3RM3WeuhZdcGyc6uk/jlmAGpUy66EclixZjJamQ0z6oXZLKVkXJSv1EDgEpk8PmfrCW5irQRoJJcLp67oGCMwgslG/QvrI17pZt+qCn2b4L1Iy0uRx19d7pYCYgMxDTOMDTg46ffKknEHSt1K5jpLElowWLR3QiMpLGzkKOFCqmLjxICEdcdAaTf7LrWqlpEs9YoReyzCwSroUTx20xd+QtDH5hO2nErcctR4sh4YBdPVJ45skdimLuFoL2OciHlDggPylaFaDFuoswEPhE/g16pOHFlVTRsa94SCzW2flCj31OAifPv941XaVN1m1EkAqXV60l08vW7veRTlR2PKUaYcbCWhGXtrs1sHPeTbmBfRl0FyhbtVUk/3gPS7ZkY6+Tdiw1LahNX3ji76v/ytbx4M24dTvCve1Qac2GK3q48A2KNVpd+KnWjNYti6+YjeuWYc6+waevnkn8UmjXfCGJa3D1Aad2sxT+ZbG5Sh+SBM2B6WsEXykQ4lggPjZG8Y8I3QWrQUC/shzrrFT16y1/kCba2qxrQACOZUridJqWYqeHT6Hfeh6hENpaFew0i1TLQtaHc9D8Zs8QnzKIG9BgcrSRpu6fzje4fghvdYHhvgKWlOo+D2t0VxN16pr37yTNOpMino8uQxPT/5OE/EFUGGAT53Q0YGSYxagNMUg7S9bb9/D1t1zv/X27rLegcetO7vf4vl9Fh+cs/7sXls5yL35PbYy+5jV8q715x60zsF7bHnfgzzfaQNCMr/b0qUD1l/Yy+991iPNyv5HLe7OoiWL/N5lS3so58BOG87tJv+9nPd7iCmvP7fXlvbtsB5lVNKOLc7uIv0Oz6Oz/zHK2U0Z+72MZHEfZeyxLvc7xB8u7Xa6lqhHh/g9BeoR4s6CvwdJS5oDxN/9oM0+dKeVS4n1FqDzAHUmXW//IzaAhnhx3kbzc5ZC14C6q9weYX7fo1aL+tbf/wDhXuvsvd+G89RlkbpAz5C8VIf+3OP26J4DT2l1dbR371qivnvsW48s2CNpy3wPOJ71l+fspVsWrTTchY22RD3utiXKWDn4kPNNdU0WVPeDFnMeQE9n306b3X8HVsceq5RXEF8Q8ghHFMVWwWRKBwuWdg7aqLdoGW2u7Z/KcqX6fav2li0CHGxl3sq9BRst77dGumI559LKQZ4tAIYrVht0rdbvEfqErlW6ixatzFkGXU16g5y2zpZnraz43SXyJW/iVxWXUCaUeGbLB3yVgTYbWFpctvm5RTuIyzu7MEe991npoDYl3Wezs7O+O8vc/DyKq/leAGO353vFaU+62dk539hS8Q4S/MxvpVnAOpVyK3gec3MePN74WvGVx/4DBzxPbcip5Twqa2lp2cs9wDPlWZSj+Eo/P7/g+YbPtWS2vLzi9w8eHMcZ06LfRdoF6ri8vEy7V2xlBRmnTNGj50U5c7PzgbaD816G4mjZjupxtADq2F2Ld+F5tndA71g7zUoTTYR8yvJairfUNr1mro+alpW01AXTtVe2ieXdti69yw6W11o6ucUG1WnT50/r8E2zz0dlenKNRwxaluSxf16luf9Wa9VXbL5+ifVbMz63R2M02iRTaTWupfGojB6P/s5AEDupd7ftydZavu4si8szypxGxVHU2C1lydyVoaY5ptoIcu3BG60djWx/43QbNjf6y6eoWrdIex5RltZTaYaxxlNG9E45CrlpeK8tjaYtmTrD0mqN/DPyb1geTVAcdJT6lqBAo4xnva41l+63NaV9trt+lmVNaKphAWluDsKmuuvlpuVYfviHcmn/+6+/xc464wznsw6osLf+2p/Zg4/v9TpU4dWPfe+L7BkXneVumgCsu3jQ/uz33m73zE/bYOZ4comoR8vfuI3HeLGWQt3VsSajJVu7dIttaqbWidbYXTdcHyKtOq655FRbSGZsMHGGrTvtIkvrNfKsWJ3yK1HVtM+cvl7g3+nCStR+e8s3ftTnTk1e/CorNaccSDUoLNfU15pxaCa5dlxJsLR6O75p5T03W3/DedY+7ZlWK2mqBryo1ClDQ+JYyTlWBnT7Z3sAqZ13fcOmq13beurJtn6jFoTrXR4uKPKgfy4N5COXRyv6H3roIVvpdEwbGpx62qmmdXlhQFkCIdcPJqJl7gLSbrMAg7aE0m9tkKlND8KM7cDIwjUr3C6tBX1kxyMObNrQoNhUU/UujkMuptw10szOUcZDD3ue2hx048aNHn91Gh0qQ+n0ZYMdO3Z4fZTXtm3bkAV0gbYo6JJVSWT9p30pAwB7gDLET3DQbjvCzj3/2uOYBaiLL77GuvVpO/6cF2prDxiL4jVhTnUSIRsBMDX/msEyjkI+rFl9doct3vcpqxx3gU2etM3X4pVKFWsKcFByLRYe5uOvGYwGVsG36tz5BRv2H7P1F7zB4vaMacFv2PFXDYmSZxrXkdJpsWps+crj1rn5b620iTK2XkYZ68bzUrRwFqECCXy5B8okc3mUDSy/53M2wLKYOPeFlk0cbzXyLWvSn1bIk9bHsmjslJ5Rg7cJlsKBuz5tjZnTbd2pVwCsVdNOKVFtwrLKlNVxLzP8toGWQCQVq2nN2SNfteHe22xm2/eaTawD/Oq+sFaz0gVQ0g8tBsUPw83N7XlnzdibXno1XA6K8PCeBfvjT97klpWmMESY+ZBkr9p+ip27hXJJK50ZYW3+xce+Yftq663KjTIgUgEMNfVBChjGpML4ThavWPfmj9hkNmcruHB33PTUhaRXX3K69Usb6YROsrS1EX7Cl2rZ6r5AuqYheQdVfdpFoJcBVjMHvm0R58WNF8ObOvRq/o5oqAKWKB/inCky7lgPt7Tde8imVh6whYlTrds+wwfK5cKWm22fIKqJt9pZGG8OywmLarBs6ohaERYlVov7YrSTlrfo7V0FMNOyFU6u2IXSS0m1kNfdX5ReSl2ARvFbR6FumvCoawGC0igP/VZQuiJtcRRlaCxJaZSf0ulYnbeCyit2BdYhINX6uoKm1Yfi677S6OsIxT3FXx3X4wUWcJ+yESokxZoTyAdsFDDefvO/IYA6bfv3WD59vD33zb9haVN7eWnr86GNohrCCygkKFGeWBcLKo+r1r3vJvvWJ99lZ179Bjvj8rBxpxiptXia5JbSVgmWRzluWIwlVY37dv0H/qOtdHfac974u5S1GYsDpRtbUVqVvvqtmNZFdXGhvvbuX7ETL3uJbXv+99mgMm01gRN6ETpvCUiILx0ZoVwPfOpPbNeDd9uzf/BXrOKfWyGiJkDVNP9Kwk4qCtFC4YoGofsr9rE/eoudcdmL7aLn/5CNak2iY/lpXAgTT66vadwN4EzSCnwY2r3XfcDu+pcP2bU/9R5rrNtipTrCjqKHeogsCS0FAbJSxDMbi/aGC7RaPQjwXUsN+8wOATMCwS0JnuqhgeJrNnfthHy/C7DkNapP2Qd3rqUHlWKGeiuNgDbwSVZnbrXFBbvhf/2CNQe4xkS469aveFmrj/Mvf451bK2dc9Vr7YRtV1uuZS3wp6Lp8SiNFCIi05iz9sZLkoHd+ZE/sD4u2pU//Cu+Lbw21NTOzuHrAU4IdEAIoKavGSzee53d9bm/spOf/TrbdNHLNFJnDSzYkWQIgNL8Oe0QTJ9i5SS2BsD61Y//OZbXdXb+qWfZces2I3c1GyFH+l65OKY3ewJtyLIhoHTf/fe5C6bZ1eefdz4dFh2qVgSM/wnQNBqUikeA+DyW0D333O1AufXU02wDFlSxgYHo1yeMlU5NDdzZALB48IEHcDmXrIWVdu455zhYaa6YA4bnrhAGr9XkBw4ctPvvv5/scjub+GvHm4PK4iwOX2dKZAGY1uPddffd3s6iQ8tY9NWEw6CmunNWvdUe8Fj03HnPvdS75QD1b+prBtsvutpWJk6yZ//YH1s8OQVzNX0fC4jeXdaBtj7PAKgeYpj3K9a59wa77sO/Y2c960fs/GtebklDK91LuAs0GIqqzQNSrK3KsGFDeuDysAPY/JbNLT1s1771jy1aezLuhbAD9dTkUNoivCEjaICZBhwcfMg+98c/bWc94xW27SVvpowZn3EeAEppBFCFi0dD9mO782PvsofuvtVe9tN/aOUNABSAVsJlKFfooRygqI/SxHIl6aGx7D74719k51z5arvwpW+zpDlp9caIeiAgAk2X4ZQywkB4jV7/ri/9ld30hb+2V/7qJ6y14URABOWWJUSairQcxdBneGVV6GN51f6cPXf6MV8Tpnq+776azcea3U4aKbqEXTRpSkRSshccN29rRvNB0UhQnlxvf/vQlE+K1Ax8pZEYCaAcG7Cg4qWOfeXPf8rWJrtsCJLdfdNTtz6/7LJrbF/esHOe/zY7GdDPGupManioAKzny28UIhnJWiDPwdC+/j9+yXrLs/bSn/sLS3DjnzjLX0oKDQCk3tbpBcPc3V+zG/76t+2c732HnXb5i/F0685LTcqsSTZI4YuRqWsEeteRi8/QCU3Nf8t++Z3/3s45/QLAgI6gDi/hqaaU6PMs5OCWzPLKin3yk5+0T3/60/bCF7zQ3viGN9rU5IxV2onVAIDGaAYXd2STedf2a+XCctkeeOwh37hzBKN+/p0/b+eceRYdnWaA4wlQl24U495G1u5GNot7v7iybP9AGZ/41Mft+S94gf3o9/2wNacmLG+nNglvaiPcbmQ3snl9IcaHF3Y++rj97u/+ngPOr/zKL9kpW0/2JTJVAN3nMXFI89Xxqh76EN3ffuKT9pnP/IO96EUvtNe/7vU2PTkBf7FOaQ/xtgSfwpCEBs0HtvOxx+z3//CPQrtD79GwoNQhHJNHWcCDwqe1lg3rLYsbKGcdl6VRQ5CrNmoiJA1aU+sVfBFXAwBC2WHoiJ4lRZhKDRqCeKUmGRJNC1Fzz6dqOb3vCIFI5M6Mr7XAFBT0eL5oFcut1AQIJTVKSzxfTazvmFda/JYlJBoUuCaUdNY90YQwjKI6dNFvA7AZPbfGWTLcuzL5VbwM0pBPqUn+KI+sAr2BlGkywuSOm2WAEBp8/QeAQZ1z0mWiU7tcqnfH4sgkPAi5aM0JJeoZEV8v0KI6fHCrCquJEDUm7Q//63vt4cd227f3VW1forqJh4RxPbxONfhJHl/Y27DHDnZcmQVEE/mK51vyOKpvSFMSjePfeTO2tNqDT7i5KNyRjiqSrUXR6phlIQrsfR0dLK6K1YeWrgSjs+oWIaCCklTo2TVW6MufFLRcheYL1ZBbH5454ObhS5H6QJ06K933uPBFay89vlvPIb4sBY2BzcyssXUb1tjGzetszYa1Vl+/0WrHn2zTx21xq2f9unW2fu1am8LN0Up/rVnTppobNm6w9WvW2objt1jtuOOsdtKJtm7dRlu/YZ2tW0ueM3Rs0CN3f71vkDljm4/b7M+10WflhJOttfl4W08+2lhz4/o1NtVqu0XVnqAM8tiwboNt1oadGzdZdcsmKx2/2dZu2Exc0bXWv//VQJ5kpa2hvI0b1tvGjets08b1hA3jwD3ub9DGnKTxegBEbay09evCRp+H426wjZs2+j2FDdCqjT+1/OVoHscsQPWiJr2IlKpuE/RATdwcX7yJYE3XY323zoURlnrPL2Wq0ltYKeF37uu4tM+hhLuB0OPy2wTxSvRsVe2Wq0FYWlwLVjUArfVbWpCL7hNyfHiwDUXRQtKavgqAS1ArpfTM864kdYBEeVdx1er1jLjhqwTIhAfpqRbsZu7KLaHQ0IA+gyHkr3V1KIoWCyu+1pv5ejsUSJ8wKXETgMJz8XVpLawJ0VRuo5TQ1ahTpi/toOeibhp5l1L5AlqC3FoPqkuL+0oj64Tf2oVXGw48+Mj99h/+29/a1/ZqjZ7WXilfLV7V+AhpVed6CrhR16htf/etB+3222/CYqraor5uSrmiV3xVaBEO1x36UHTNwI7kCorQIx10DhrMESioDStYC4Gn8NzX1gFEXPtaTCTVLTz15AQB1uENUEM7HwpjUNNaRFlXcIk2Vj6r4pCXB0/LmXt6rhce7i7SsVRhSk2didJNTtrDvaH93b07bVd/6GM8GrNR0KJZHXLTmq2GlZHFdqNlK7jgXzk4Z5+472HLWjPWRGZqCHCDjqtOgQJZuWru3lF4HYDb2RnYp+7eaTv6GZaqLBjaTPQ50IY97cp0ag0YPk1Ho23l/+XAAftHLKasuobyJ55AUzF2VdwraNYYmC/8HddDcTSOp85Cbp2+FFukOxS/0TwUtwZv5DLKZJV77+7pUTiOWYBCbuGVxggQRkz9IDwIvUxzhEi/FbTCXQqm9WE4JW7qa1xEAq3rsEZufJbSIKi674svpRgeT/d15tm4nCJ/71n9GdeEyMctiAddivvEeKR7QlzqAJjJStCGnMWzQllW53v4txQwpNU9DAEPnt+YLh+DE81c+xgQ18q/yM/zJK4G7/WZFoVQr5CXxqbk8ApoYQF5B9qLdK78xNV14KXGaFL7zT/8A/vUjrb97U7cO/FuHMdp51zk4evxqISPWagtwdIjH+G56ut0ez7wxsGazsOBRL8pBzAJvAlpPC5AWGzDHqytAFYKDngCNGjBDudMXcdlKD8HNcVF+VWO1wXAU34qA246Ycqj2dILFrNvPPCYffmxgzaPOyOFLMZnZFUeVlAtMA9vIXfNL9mXHtljd3aHWL2Ai8YQJctKh/unMSCXbwEhwKU3szc88Khd99BeWyLOEBIEsjXxVbzSqgSVpxOVqWDGPrpvzr6w41G7s9PBYtU4FpYscQRMxeH0cU8upEDFx6J4XpwL2p23xNU5uHaHQ4ivtj6cRtd6i6s6H62RooKrx96hrxnocygImMY+pYBufuuaP372hpLVJKbiFiGIuobL4hn3QhwfLPZ0CrqWoIc0xSJjbo3vr4qndEqv38pPIEhcxVe5IZ5oGefv9IRynebi2ssS/aqLzno2zttpI4zL11mDnV5/gaHyOJRPkY4yx3VSfqq3lFCCpeBWBvGK3wUtIX6gW3zK1QH4veJZEU9lKHBPdR2XrXo7f3UmtcdT/IJHh+oWFFeHBLe4fspBVnrzFlbFk3bcQQRFkPUzfublBB7q++2iO/TaRZmyQJUGAFpFS6BxXNA4kJXTo3gqx906bwelHZfj8SIfp9Igtd6yNknwkmdebLW167VXA3GDgruSUsjqN2q6VhucsfVEO/fsk32dIcakr+2Ty1W0SzFgrbzEJ1kpL3judmtNz+Aa4yY7neGZp4FIvVARfWorbtoZZ2y1Cy44k/gVH2cN+R0GzuK36FKLF2Xrtw6ngzIUeML9MN7EE3+ueEXQukrveDh7fK5VxNECJx2BymPxGCuQO94c4oEvbyjerBHUM4f7CJHiSXG44a/u/VLxEepR5ueQTs89S86aqh+EPeQzLgNp0sBfKEPxQxpfhlIcXOpeKGOctkhTPFOk4m9xz+OG8g6HkP+hkCWc9VasiDd+7nmHOh2iSwWOFTbky3OPG+rhdff66LnSj4l3IQzXh/J22kL+RVy9ndFZg6M6Ak3jsnXf04zTe7xwVpCMS5iJ6WmPeIzz8fg5cfVSQr8P5Ukm/jzcD6AYlMzj+33COH6gZ3zPMwrKGr4VLlqUVxGKehQ0BEpJSXx4gHZoQTJqaU3adoL7E6Oelb19VqcVEIZy+GE1LCUtRBbPZkapTQ0GWDvEE4CIfzrxTOl08MjUz4LPhlFnE5m2OYutAbD43n/kq7RuNfK8OqIs0upjiPIu1iYKyLLKUFhFk46inOL36qOIW8QpOjbuHLr3nY5DaVTvo3QcswBVNLavr8Iw0psxX3OlN0SH1qSF+4UySbTU+vod1r3puWa6an5OyKc4a9FuUICgkOoAiwXAYT2byg5zerTcJYAPjYd97evRUHrPizgeTzT5b501Fypce8cKTcilp9Fvp8PzL9KHuLoed8R+qB6ip1jrp3oPtZzG1xWqXqQRHUoEv0J81YF7PPO6FHmP+REWKxNIF5S6qDM0E8fLEm+dvzDVQYO44hfqoaLy8Vs15ev1Jq5oUx5qI+UnK0I9skBT5+90qN30dtBpF//H+XrwdXWiL9x3hXAFDGvAfEqDaPF6hjp7cD7y3NOoncdARhm65/xRfE8T5m45f5wnWBlELOlNKWXwyHJoKa0MAJvMJpb3WzXRhhVal3Z4nZwDsdOErAy4j2Wuzzqv65Fufo6CUxtksQxjSxVPAAZbvFNR5Z0BmTUov7W0z9pq6CHWYqnsUyDC3CsuVBa0qqPoa+gAOtcv9W16bj7QTDnFGrniUCcVJnCqkwpBdHvZyrcI/PP/uoaO1fH8LPkdpy+CWla6erQw6pgFqKgkU5ieSG1CowYA0FwYKQTKKqXw8+iQoPm8pUJgEeoALkG5Qwj5+EJjGlnOvMpRGWFBbjgnKEbIWyFzRS2UPNe0AAcylaX8QvzVZRSKG0CN3g5RDV8jKPIpaA/1UDrdKwAXZ8XLUHlhzmFQ1CJtyEtlUoUMUxuatPJe6+2K+84f8vUylL/SepBwiyZNRK0cpleBa0+rdICy89mvlQa6iO9liybRW+RPUFxfzFyUIQFH0L035nykQy5JptEVB8DQiXj5fo7GeVEf+KBpG2GLeDldmrgZgu7HBE2f0GLwEEKdxEvtSqzdX6SkmpDpOxdzz3eQ9rgCe+LzXHN7UhIFJaQsrBJtGjrSOk/yqPRSeznu1MlTbYBYHUQBUqF+Dn7kqbIGcWrxoG9nrZmxa88/D/4MyVMz1ilDMq05LYCP0msvvWSQWNofWGMwtFdefL4dX28g99DW11o/eOsgovoQVC6Miqlk3h/ahWtn7PlnnA6Q9hxIwjIaLQIugFy81QTPsKdeCOMNOQn6hrnO2myC3KlH4IM/WxX/idfasFSxHaK8/kfjOGYBijb2hh/BEH2L2W/QYAIrrTzXWbvEOqojFKm+O60pAzSEJsO5009j0qF4kKAqTUkzNl2QED4F7qc0nCwt/5SLC7byVJwQPB/KH2kxrsej8aHJz6QPIQhoCBIKhF8LSQmeBsTw8sbhUDkKpNGCW5ntg27fG97jICA5ZYQtvAP96s1D3cO18h9oiQwKpAXKqr/XlTxdWcQjnamb54kQDrra8VhxRAf88mvVQaAr8KX8cfBZANRluNInQ9GA0KtLV34F/Yr7pPqncR/l6gZXSTePcAxwWaxUxyIYWBQvWUn8RbG19Xk+iHwxuHYM1maeo1R1TAAk7QYtwOp7GaMEflEHLezVwmW8r8AjFCiHsHzQxS+qUVjH+vBSkzEzLBM8qBCGgLqnU3rJjqa3wFdUowJgjJaXbZk0s0PslWHXrpqp27rhsvVXtOnlkvX6Kw4K5TKgAb0DLKZlyuqtkHkv8d2fz5hpWb83tHiBZ3HPhn3oFi8FHNA36K2QD/mtLFm0NGtXTk/bDHWaI+9hB9BBJgQMcvCSwYg8OrbcX7ZkAbBYHtgUvuGZ0y0rr6TW7wytS5pEZi1QrjG1AUDZg64eNHS08Sqh2+vbCvGWqUeHc5fnkp8KdZds97td0wadihfS9Ii/4ktiuvzuU7cBwK22htuCNc5P/3HMTtS86NJn2EHA5KRLXmmVCS1nWOebJpSq2uoJyyfGkklowBKNNKja4NG7bf6+T1l5w1l2wgXXWNJYiz9dxY8vW7mqtVc1BBxh7VexnHtWibu248vvw+/fbxsufbONZo4zvWat1bSLita/4crxb0Rjaft0rQjvzj5sC9/+kNnGc+2ki55jSXXS8uakaRFnlaAxDlkN2rJaIaKM2a9/wOKl/bbx8tdaZe3JPgkx0uzn+pS/SgLi6K1QjMEKyjOw/sHdtu/rf2v1DafblsueTxkVf7tUq05YVF2rgQQAo+O9YRJXfRv3x27+nCX7brPNz3i1NdedQF0R1lrbNy7VYKZGXlIUeYRCaxnOYG4nZXzYZjZstsnLX2/Dil5nj+uuQVzKcJMeJSljNdSygT38zc/ZaO42O+6yN1hp46k+aBy3qLNee5dl7aLspImpg4A1Wthts197n22eyG2hPGV33/jNccsePq7YfqHN9ifs+PNfaCddeI3F9aaV61Vr6uxfjdCuxEMbANAJwKjtpm7+wG9wL7btb/pNS5EFfQe+puU2GlCPsApBFwFrAj+HKPTcLZ+zHf/yN3bc5a+kDV6JPITP2Zaoq28BBv9jrNyhOg7AQpNYNZN8JnvMvv+132unnX6WVRoTGmmG9fpWFABJG49GE9bPAaJex/758/9sd97+DTv3rCvsRde+xNZMNq0SjQee3YKksvxROw+px47HH7e//dhHAdDEXvva19tJ2nEFi6kO8OrNqn//i7roQ3s5gJkAVF/8/Ofs5tvutHPP3WYvvvZl1pqatLrkjhpo7EpWDF2Hy50suF27dtkHPvABdz1f//rX29atW316QDFWplC4aWo3LRT+8pe/bHfddZedccYZ9qpXvSpMPUAeVI/iEKiGdh7Z44/vtg/+zd+Qlybs5Hbbjf+GZpJfc+GZNl9q21LpNCtPtmHCtJWasKGC4jX1bR65ciC69egtadyl3bYuudf62TobtbfQO09ZtdHU/EQUXEsVarZMbO2LN8z6Vuov2Zqlu+kxDtpc/SIzlF+NUQU0tPDUdxZ28JALULG+VpP2D9iWzh02V9lgcft4y2ozpp1JwjedNe8EIcFakJUiQVSSmdmbrY2iHWiebsPGJqvpjQo9+kSNPpry3EhBqEpYBrksDhRravCodcqbrNM4xUYIblnf3a42rASQlElnAih6yDRGMQGo2vIDNjXaa4vlrTaqTVPvaX+HLqDVWkE1cD8DDIkroK30Z21z536fQX1w5gJARm+XFGoOVHqTIyHUAO1ALk4yZxPL+2ymvNf2jE624fQJ1kIo9clc8UpzZtSLpuStTTblknVpn+N691srX7QVaLrnhqfOMn7WpWfaiq23vcP1tNlxGFPaURjLxZeu0KFoYXQ2dIUja9yWxDYt3sw9LJr2uRbVJ6Gh5NMv1KGUAEofa6J8uTnDpGz1xXvtxNEe210+3vrNU6zaArRpV01e1Vs70e0uL25y2lumHZat1t9vkxUsNu0a01yDEVlxujRVQeM8mm+XJROWlmXhDrCUutC8aINh22rTM8QrXB65uOMrGiEE6KO9rTfrIDZETq055VMPkGiNbbjDBIVuhcucjkaAfm/BGvCjR0dTazQ8M6L6dBcBJrl6XF2FMdXDY2OFmy35fvK91SFFbhVHrp1AyTs34uooQI2IHlekyQpMKbOKrGnQ/98UQJ19+XNsOHmqXfWqf4/lsQEBbCEsmK2awIJa17GgRvnQeih/1i/byv232s2f+zM7edtL7ZyrX2opvV4JZvtSF4QrhdGKH/Xr/jUDAcFNf/en1l152C5/1a9aY91WX9sUtvKmAYkva4h2dkuCTtxW9txnt3z4D2z9udfYec95NdaTdgoOmxHoVa4kS4OLcun0obMEt+CRz/93e/yhe+3y1/+sNTefSa9H3ih0FWHTyn10yc3kHFctolfqzu2xr3zg5+z4s59j5z33rZbWtEMySiFFJB0xEcgYevSxMoQaULvnug/ZY7d9wZ7x/b9rU5tPQ9G1TZMUHQEDoEsIUVjqEvvYSDr/uH31r3/HTj71TDv5JT8O4E9SB819Ib7eXwc5lLxTBgARL9uOr37e7r3+E/aiH/4tSzdstQn13gBg+JpBEHYf5wEYBGzp3MN2+4d/0xqDvdYpNey+I2zqeOVlF9hivgEL6iW2ZdszqWvDaWiSdwRIjeCRLCi8PAc9uR27PveXuGU9O+Pan6HD0tbnAKsDJfyhsuELFJSfdKyLJdK99zrbf/2nbGbbC2zNhS8BnFKbaLV9DEidBUYLvKlgpaHatFfUmbUb/unjuJ09u+KF32ujic1WbU+KiSgvkWFPjfbNkhYWGvKI1XXg/jvtjpv/0c4879l2wrbLbNSa8CkK4r2mMoihrswqg7qUFg7aXV/4MO1udt4Lvs+i6U3IheZgERVlF/CU4KW7yli8Ze1M/cCNdu+3Pk+bHLQ6FnXD5xnwXBXgsgL/I6WR3HLfrRy5bOiAQOawNSfQDGCzWvVlSWmxs6Y6yLXThEwHJI4ivn4VabQ8S1Y8mfNMnUNktx6hE/rXHscsQGnvrU7zDHvhW/7MBo019GC4Eq2Og03JMM/j8IGwAQCUDSLrP3C7ffkjv2OnPe+H7fQrX2BJEzcNwdXMas3I1ofwq4Oc3pFeiypX8Om//le/Y4srj9iL3/IuG6zbbFFNIADPx8LlHRg9d32oMacY9+th+9KfvsO2XnatXXTtD9oACypryB1UmkC33hQ5qCGM1UHH7vn4f7KH7rrFrv3J37PKhlN90p2EcEQ5IAjCRFzio4doIY+Srv3df7jGzt7+PXbhi99hWXsamkYAiOaEIYk57hSJtOhXYz8aJ7nnn99nt/3zB+35v/Rha2zcwk2ESZMPKUP6oTGkKpZQhAUS67o3Zx/6zR+zc7ddbOe+9hesj8WluGGypQQSmihDdSjH9MjDrj3+9S/Ztz7zP+xNv/ZX1kGhWrQDHiZgKxlF2PVPrglKpfG1qLPfvvqXP21TyV4b4q7de/2XxZ4nHOdf/gwAapOd/9wftBMufq6NUA70CeWTKqBomlyJxaJ1ch4G2rjzt62/vGgv+Mk/slTb4ANMxeRbJZOFIqDUm7huGlnnnuvsWx/9r3bBS3/ENl72Mt9+ShZvRhqwjVLIN9O2+ICzrNHBov3jB/7Mks5Be8kPvdOS6ZO9U6xFuLsAw4jGrtJh5UnNsHlp44HN3X2Dff6T/82ufvGb7IRLn41ljWUHf1QXxxEOaZlkSfyxlVm7/n2/52OUz/wRXNXJDdYuD321QTL+ioOWAWmsVQP8BiDP3fd1+8qH/6tdfsFme81LXmjr6nLhazas0w6AFLBm9SS3zghXnrrv3LnT/gb3S+qtjTtPOeUUB6vVVpEOAZm+kKAxrrBx5x2HNu7ULHOfuS7m6iAv5aegj+7t2vW4ffijH/U6aWfnowFQhyk9xo7MaoSKJfSqSZN+r0VjNzD98dlKEzBpAn5hHY+0RKmJyVnFDMZhKGWDsMwDZW6iPC3co2ZtZA2Eq9RKLSd+jqs4amB51WKLIxpUyzqIqzhaUtOsJ4SRL19xa7pRwXVCqLF4hih4pv36tVisXjXwiTJyL6dFOS2l47eWqGBi0MPpK5BYSpU6YAYwEXLq02hGNkG57brSEXxWMyCBu6UePdf3n8gcPaB+uGmkyfVxK/iQUQej/iPxpA0gVKh73jm0LLBBfhPUcYK8J3RdRym0BlHr+KB5BEAmIHGCVaprbfHUohynpa5NK1UPeAFNKdXMW/C7GqOcuDM8G8ETtYd404ZH7caItNRbgXo3AQ0NTKeaSARg+He9j3CU4I0Dj96kNtpYvQ1AigAz8rYygijc9Iz7WR1iGi3fxGEZRVT8Ec8zBYgfHQq0E2df04glmcDHlSFlROTLvaw+QSA/xVGA4BG81ZIh5ZfwrIuSD0fz0IMlPIEMtgD8Nh1EC2BChkaTWGhTegYfuG/1AQo7i3zAozZuN/xU+zeQg+ZY/rwqAlNQMW2XkIsF5GIeenNL1J5tZHNC+dKuU7hnE7iBE5TRimzYLtMZ4J6n++yUrRtt+2UXYX1ealdefrldfMXldsmzrrFtV11tlzzjarviymfYRRddRAd/mVtDsoQu1iaj3Luc+FdeeeVTwvbt2z3Oqaee6m6ewEy/9UxprrjiCr++6qqrDt1T/spT41RH8zhmASrRlkQgfgogSRm02DdqlK0ukEIhcoESSpg1dU2oxwBHF4tpiFuHCyhlrQooMIe1No9zpNl2GscCnKyBQFSHKOmQtHKh6LW07AFlrvFba8FqCJeWXGh3X5c4wGNED5xjaWQoek58MMvX3fkGkKTzM2XJItHYjr68kMjC0MJbLDot5tVCXgGipxvTpo0kVVaJa1U21yAxgJRRduYgCTCjSBH0Ry0tnYgJ0AKQ0KUTX+MGMfQk5Av3KvqsSADmOoBd1po9La72hczwFZpSenkYJkMu1MProHqHoD3nIuRP/A5lyMXGFdVvylV832CTuHUF1YN8lJ/GvjT6FeUotl4pHuFoZrgSCqhqAwtRdBYbagrk2/CmSf5NrJ1GxD3coEaZ+pVi//CcvklVxyJVkPI34bfAsTi3CHXcRG2fXislvqZxgjZrAxba5VnxGtTf9+CD5ho8qWNu12Sj47bUAfAqlaHpSFuxNo3aglENXz6EheQWeo0ycKGw2ir6VDCmq5ZSlgC3CBmNWgI22pV2M9rLF62TTxXQrgAGpPSlRHX4pVBDtkRTk/J0loyUZFXpA3viJzwptypWn6hbdQorambSlqj/3hiZ4HcDq0eLfQvgkOum8VFtxy7A0jMF/ZaFVNzTOYw/ymUr+XPloThF/LYC10U6PS8ssqPliB2zAOW7cGBE18tdhBIhLtNLR0NCYpP4UxMIjc4teuEWMVuY6DV64xzBGyF4Ao9SnYAVom3H/e0QDd1GGJr02AplLJUybkA9rwFWgAeCpzVTOd1d7qYAoAAwaJFvCwUVHdV8BUHp8ih2hTLKkHVS0htGemSknt8u7QguilfqWo00zWjgW7a3AY4mQqZ8/WsMBH0xQWVlaEmOhuujahjvXl5LFl1tgFJRb9JNonRt3IyWAoKEU4RRgwCnlMkzt7IEZgR9tVOhTL4YFl6+QgNLqIzF1bA+/AV4DqUTPaJFdQjWapPqTcCfOryqwKsW57bBc1wPPfe4RRDvyMeBm0dyYPVxuUh+7xEOjcfomW+sSdvWawFUWwImWKkt6h2wBLL81hcw5Qsrz3oJntC5KEzUhjalUB/aJJ3EhBaW+6aslA+PSvAyAAEgAl1yvRp0UHVAvtGAz3RYNcquYIlWqz1iplZKqUveIh2AAQDoLa22Tm8BYM1yk/hl2kHr5JrE1sJ2nksSee5fUoA3FXihBeE1+FrluqIF4iob63WEKZ/T89RBM19YHemFDkACQLUhUt+sEgCWaRsBWFngB++RKpfnkV4sYlnv3D1rH/qXb9oXHt7hwwbFm7fCjSvGnwQ+AVS0GSdlgnzFtT714m9BkSmNu+qNosbzioXBxcad2hBU+WidXhG0gkFDIjofjeOYBaiOXl3qm9U0fBNlCN91omHoueuY0k0a0hcNI4gyBOTr+zR/0kSAQKRBR3reKgpYB1yqCL4huBorprU1lOMzc0Oako/VaDlC1f15FITfMpya/FZeudbGIYJ5Ts/kO0OGMhVf6Ty9xg7G11Wt6eKC5iaeLIkGihh6/YoCtLvVpjpIcaBFQ+AqW0094p7Gd2AAAkqvqTwozxe9Ur8SaQUs2osz5VrLHjTnBbgDRFEOmlYr4GVJqhf2zxKrdwTgI1UetdInWirwWbR6HShbvAxWiQBB6UiPPZvBx1La5yYWCRZP+NaU4ob4AiT08lBeZa1zxHLRa3x9v+pIx6iEG4aJ5p8nJg/x05UR5fA3YZ4hPNeZ/DUQKyZo6UcWQZimjghthDpOgK6phe6RJoMvGRVI9CIF2cngwYhosIeyABTKljXj689k8enzF9pciggj2tvHCSlSVmEG6CYATAU5qlB3fQerXcKipL4xQFrSVjQRVjm/VQ9vC8oRz31toV9DFrwRuCbUT/sCVmg3LY5W/hFALGtRHkAEYCL6Tq++mBHRIYontbwJ6FZxP+ExdJ2wZr2tP+0c2w2RsnxCeTzgWD3ILaDSWKHzl3xWX3vgWusiNXPd1wBCsNLJgpQ1HOIqbwGe8vKmIA1/aONxUU/7odyPyaOJEpUBg4gGcR+H3qOkFuNeF/enSxt04VCfHmsAEweVBqGFbz9B4IzQJUhKjMmtQP9IXuSX0RDq7UYaVtS3zgmUlSJwKcqXKAB6IUjxIUZjKZmASfFbHpwurlLoSEibACQhfRauJcRYHopXUlyPj0Ih/DKGBSiHy1H8kEaBSFgX1DehJ0tQohFlZpgQlKfZ3+KHnpPUe9UK9UJ0fWa2aFZ+CYIdcx0TSWUhdS7t4oH8RuwC+CvfGWEnruqvuqeHaFI+ufUorldt2rDWtKTWsi5WRA9F7gMAyj/EC+lSgDPwkaIoASgFTILQH+koYYmSC9aH2kTtLXiF15AqJQ/Ar4ByowHjHKkDCk2EAcqhtpcMDOnZh4DUENBOCGRIuoSQkjacw28BPqBAbsqTUslT9hXKJ8D2f1I+fUNqiHJmYB0dJeAjcFFazYfy7doBGv0uAVSlUm8chr4B6QDZHKLMCTQ5nR7UPiFvhZLKII8I2iIAPcJ11SRUB0vSEx16Ceo4RBNnD+KXLFj+rZus2YZWyaaJrzhEhwaeEAIoEW/82/9x1nHo3qrfSlzcW+2yPTleuD5872geUr9j8mhowBsBTmm8IY2ml1z+HeQMX1szhPXKVvM2Eho5QXhG2gAStzBFMAnVhEbVK1rN+4m5z1nftNb6KlTJ0px8lCsClZNneYiwDhHOAe7SAN96AIgNaGDu+5wg4qYI0AihyugtU4RR/n1Ih3AM6GmGSqs8MJe5h+p6GSNc1VSCy3VMfWJZFzEq0Uc9vBwF0g1DulKkj8P1oAuawRbNa9HnYmOUM4b+BBdQ0wxUvuYJaRM5RJ/0dauSl2hw2p1+xDaueL2xCZyGBHoy6BmVqRNWDp1zqMNQdOAOj9OLFvQQnmtqNlYbZSroM7y+qSZ193gen7orPWl0378SqsFvuTOydo5waNws0ytJt0yJl1ILlE9tPUQ/NICe0kP4OkHuSz0FUbQ8dEAD7VJGBsq0fZSi9IRyCi9GWHrwxj/iR4fgZzqZlLO+hina9GmTNE9cDkbUTWvnRmrf0gqhTxzJG1aqWExeelOlCfQxdOhzyyOuNfXENzX12oQ+gN4IOcT9lzwmtAmyV0P2atBZS/mdUmfRoPj8lWTJrfLylD9n7QI9HOktNfe8/dUxUW/VBVq0IWmk1RTcL0GX1gjWV5YBeOpMvVwunnR4HcbPBD46PzmoY4S1fuhy9bNiXtXqe0dr3Gn1ccwCFH045jJ/UWi9zo0JQ5iiGax5jwbqoVR9gGmAIAwRUn3TGwnSq3TzgOAAUnofn42D1kHp9XxMPq6sCJIUVPOifKfIEUFLKvw1MiBIkJRozVNM4w8k0NAExPBbb87Id6S4uBBaJjEkcK3yc83fIX/BASWQ1uGJANQJXHCXvJxY5VAnzepEiJUuAwRzXLEUgUoQQO1q0idNj99U3frULUZgBsRPKCPWZEaEXZM9pbQlaC6hPaJfy3G0nGVA2gF1GFIHgaQDLpbBIAOsBHIojtNd1CPmt5RrOLIqvI3gc0ReFWitw+fKAEKKehOUTvXRYjrvRCgP9XF3QYp8pEOv7AViCdZTgsKJBRQFf6SkukZRPYT7cAeJrTvQCDgi74A4Q6r1eaZEamAipyh4oj3usDbTrE0arMCUtACePiGs6RZDFFubSCjQAs5TUrrlnWBdKr5AcpRihScVG8QlG+CXDbiOOSejBqFC+jpA26YeuJFy6UUXdNCMyCUdpToxaNS9EjKZki7LWpTZIk2dcskDumLKG2hvQOo8GNfdQRA11Wz3WJa+LCyAIdc6SNpD9vgE7bURYCnDuJT2EZgIQIpD86EKUEmRGQXFKa4P35OrNu6QZQRQzuq4xSah4XkALI09FddH4zh2ASo/Dp2ZthxfrozwlboIe69sab9l/bhh/USNWCNga0loylO4HjOcm7aEwC/RPos0+mJcs4W4botYF8MOAqt8sDJGfdyndMoqoynKaVgHoV8iLOuMMCyQ/wICsoBAlbAOoh5u0bBNmkksiCmEoY1ClGyFXkzxFRZ1RvgXubesXg9BHA2bOFFrSYubpjy6Vcs6ZVtCyD1/whI6tZSXbB5LpYMAWraedFOWySoRdvbIq1N1XhjXBh9KPT1TPXAdR+tR2DXWx8VbAoCWUZNFhHEO5ZpTGeqNsdbEv6xLveM2FuqMZeRRgn8daF2k2EXiL4p+XMFF8RBedLCQBriZw7xto8q0dVF6baYpRVJdF8RjP0M/YLEI3zu0X5T04FWfHh4l0mDJEY6RXk5Qb9QQcNNses4ocdoHmLVJaR/hB2y0/k+gm6GAsqHk9g0B6V5aBbC1QWfNumpDBfjco35D+KT49A1Wi2q+GDeifhHAlGhZIb5rKnnoAC49+NjF9xoCZj2sUOpakjtM3WTOZYBxro1KByisNoPVwmjOwnX6B+pKmyAn+o54Qrw+QNNJmrZC+yzRhgtY1EtYmR3ksI/MZljPZSzGKANeZJYRMOTIjzyVLwHUc7DNqYO+xS6XV+NCMe2rdXtDOufucGiDXt8u3nqCvfyqK70j0qoETbQUKAk4CmDSvR5xNRlT3x/Xb10XoQAeDajrrAm3iqdnT46rUCwcLnBJruTROI5ZgNIH2pPeksV7H7Jo3/1W3v+oZQcPWDw3Z+nCvCULS75h5HD+cest7rbZgw/D3I519t9l2cKDNjy407LFA5YvHTBbmEVzFqy0eNDyedIe2Et4zLLlfVYfzFt64FGL9x2wZN+CJfs7lINizeMqzOvctdJB0h143Eb7d9pEumwD4o/2Pmz5vj2WHViy0QHcggNdQs9GB3VesfTgonX27AR59lhzMEfaRy3f+yh1edyqB/ZbaQ4Xbg4rinM227F0/5yVFuZsbsd9gBlWzsqCjRYfs/jgI5bPPmKl2cctOkgdZhcsmlN6yp7dZ6O5vba851GrIbiDPbug/SA822+j2WWzuS71DWXkqgP8y2Z3WefRe63en8ctOEC5O6n/LOclgupOGtIZNOVz1AueDecesbnH77JWtWsLu+627oEdvkFndhAoJH5GvfPZENIDyzbcN2uLjz+MBbHkr/c12fJIRx1wqmAx5h3aIdln1d5eq/dmrdFdsibKUe2vcG/Byp05i1ZmrdQ5SNvutkY8j0s5jyIvAS7Q28fGxsLLu1hxPQUUunsA61qbou6wZnKQdt5vle5e5Ge/1fqzVkNZa8Sr9WKrdkm7SJplyusu+4af1YT2IH6Dcsore0k7a1G3z7kLTR3iia79Tl+pu8+ao0Xo22OlFdqlv4whDl+kwACFFi7rOh3Q1qSNoE3xasMDFnV2Ew5YubcIXfOEntU7Pat1+d2do7x5ntOmy3sAQOSb8haXFm1+fsn2ogtz8/tpf9p07y7EPGy0ubS0ZIuLiw5Msmz0W3vqzc1p487ZQxuD+mah4/i67nZpc+ILmHRfeYRNSEPc1emUn54J2HQcLQvqmJ1Jvn37BXYg7ljPzre00reo0jCrztioWrE63UlFr4FHKzaMBm5qN7v7bX12vy3FU5Y0j7MYi6qiBaF0bpFcCUK/jLDQy+Z0e+rhp5futWZt0faXzjNfYEvvoXV7WnSqHkGs0acn5ClqrKEUH7CThvfavtE6i1snYFFMWrmUme+zRv6+7REmtxaFJrhLo3Jmaxbus4ly13aXzrFRoxl6Tr0ypzcs6zUdeWvf/wz3Mh31sBS6tiHdbwvZtA3rm3zqQ6mMkR9pItg0deGUazW83MS6u4WN3qPYQ/tsyU60pELvr7VxejulZROaGg8QyD3FP8Bq6aAMA9uS3Anf2rZ/8hx3l/TmR2vqgrWDxTY23TXeUklWsGIft83ZbttVO8uG1Y0+Iz6nvqHuYRBcLq/okqswxOo6fvCArW/Gtkxb3HXj1zzO6uMZF15oKzZpQ3jZPmGrpfWqv8qvaYsx6puX9bqfnho/R8uHMqyD+JZPWIW61C54kWV17dxTsRqyodf7oc1ENy4L5g2elY123GW1A9+07vTlVjntHKzZhlXrWCeVmmaCUFO5c1hTWJFZbxnQQJHv/po1NE545vMtmtxgdYBBs8nT+rS/uazIPdSi4QGdUTIBONxkzce/iSF7idkpFyKrVdPmpwU/NdVB4z9JDEhhmWgX4/7dX6LsrtXPfJH1J9ZSh7o1qvJX1xBf86Qk1yNfrqOhh8Hjt9Gx3W6T69p27inaEmrCBo2Sb8cui1IvC2o+1gj/ASaBzr333gsNVZ94uXbtWuePPu9cWDtSfK0blZzLfbv/wYcpEwsR/m274Hx/iaC3eHrjd0gfxqCn8TIB1YM7HvFn0rFbb3jqgvB/7XHsLnXZfrb1apts+tx/Z+3pps8sbvtsYLNmvWxDvdnT5zaGA9wO/PbHbrPk7k+ZbdhuG8++0rIWjU7jNACJCqCmrxkMtVyFHt1wHfKV2BZu/wg92Q6rXfwj1pw5nsYME/CkdFJY2sKBaTjSp0NwI/bcYendH7HhzKW24dwXWjrRwKoAMEmnOSt6qaEB7SROfSlAjx5+eNuncC132+Q5b7DqxpPc3YgagAqKqNfpGnyWaa6FttqbbGV2v/Vu/oBlG862yQte4otVm5EmQhK3hjsngEpQvmSEmwuN9Kide75gtvtWa13yJmuu3WK1Rh1FBzgkXGUNumvcKvavH0TDvnXnAbMb/tqaG7Za9ZxXWr05EeqgulcjBxxfT0gZ2m6r2ols7/2fNtv7dWtve4tV1p9m/t1tBfEMrdVQsT69kuCu6BtLc/MHrH/zx2wq3mfdUtvuvOWp++Jdc+kFtlLdZPP1k62+UWsIw2TBajm8/gdzcH9U15D3oLNs7Z3XYUkk1j/hGRa1Zrx8gb3m5EiRBDm+BAr6BxqP2nePbZi/wWZnLrN83clWaa4lLq6i5ibpbRwpfF88fXIF4ChhseR7brUyfuDghOchd21rq22rLcuaYUqGf7APfpb6Q/iKbB64zdYt3GQH2+da6bgLoAfFFl+gyZcP0c4aZNfatRi5iAYdq+y6kY6hZ8NNz7B0BsBHLqq1Aeg35QBXoZPT2OMQV3OEHKXQtK77gMV0YPW4BhBVrdPIfTBeC5h7yGtdb3YzWTSZt6GCwEMWkeRZbaSXKwVA6Qjqn/s9vUhotto2wKXTJ1ekP+o89fzJb+y44x1Ra3KKMx0Tcn/7Td8eP336jmMWoLZdeQVWyol29Q+82yoNfG96C/pLLCiYH6EEpSaKCrNhYJdGXHr4ervjY39oW5/5JjvrymuxlrSLBUJYohf23h5lhqG98hAlRQn7ud3w4V+30fJDdskP/ZmV2xtdsDR3yq0U/viXJ9VjqLx+1dLZ++3r/+tn7ISLXmvnPO8HbdCi96ZhfTsk0kkwwno09IqeMgfYdvzDX9rD933Lnv3mP7bKxpOJD0g0NYBMbyZBEUDRi8ml1YfeSrgGn/2919opV7zMzrr2xy2N2oDsCBBASQFZvfWqykKgjH5awR4Y2ENfeo89+OWP2LPf/l6rr9tCHciduigInLApTB88GyVYDbgcKQL/uXe9xU684Eo76+U/h0UHMIzrXlL9EUbVXT2xevxGv2EP3vhBu+Pzf26v/NmP2GjNFmgnLmCmKrjhiMg6v7DS/CuVK/vspvf8sjU7uM/VCbvj5qfui3fVpRfbwWiznfqcN9spF78QC7mFZaZX+dAs1sD3CIXSJqHyJDLA6rYP/KbFnUW76kf/wNIaYEOHpTlevpmF81PljwBK2hxL+MAd19nDn3yXnfiSn7ATLnyO5Vp3CM+1d2CxcWeSI1/kr29F1QbL9tWP/LGNcCsv+4HfNVszZZqMEQEccV0TdYkIOGh9Y3mApUJHuXLvP9mdn/wjO/XFP2ZbLn45liu8xBD1ryXQXm59uFwIaCmTvK//yH+hPj274vW/aoM1G60BQNWquMl0wqpGmTbWAHzfp8T06IS+bLd+8k+s1RzYtq1nW6MxYd16yRrE07fa+wBiI5aVg+WOtSYL6oEHHnA+a6v0NWvCwnbffNQbjQeIbDFGpfGkBx/cETokwOzsM8+gLM25Ug4BoAQVCoqvL7nKzXv40Z0AMd4MGR4NgILSY/NI8gmYgMWE0I607qrRQrgU2mY0jtaplWCgzPwRPW+O+b0Sl62fo7JaJzcxYYnWcLUnsKaI06pzJn4LxCf9qM79cssWE61zoqzGpKVYEqPWJIFzmx6z3eTcxtUif9JqHtCiBucRGo/P/RBH+XJWOaQbtZR20pL6lC2NqrYQozRcq9wU6yatK07DUmgq4sY8S6BpVJ+0FQ2MWsUSTIhci/SoJ10bAcVoYl2QpsTvaKJuMYA3LNWsM6SHhlfKQ/VIqUMG7Sk06Xfm9Wo63aPGDLzCwQDkR03qAV9TyhAto6biiz7qpGvuJfWaJfCoR12S5jS/x3VVfOeT4offiq88Ing1wAIruRl05CMzvVmjly7RrhFB6w9xtbUpXi7eQpd4pnV3HqhbB3BY0pu4KuWJbnipvRP19QpfnzdOY7R7DKCnxFuI9W4BmhuADIg2Uv18jR+0ezp+q024Fv8X4c0SIa7QJrhSuu97E1KvTPxC5hJC6jTVbQjdsz2sTeQpET0uk6KlbblkSnGLUNP9KesNzRY1MI4VqLK1X6KeZ1jWkfYupNwyPKjUaHPyN/Je6SS+9u6tb3uLve0db7Vf/LmftF/5uZ+1X/z5d9ovv/Pn7D+8/R32sz/zM/ZTP/VT9uY3v9mXpGgm+A/+4A/6vXf87Dvs53/+5z38ws//gp9/9md/1t7+9rfb2972NnvWs55l3U7X19v9xE/8hN//uZ/7OfuFX/iFJ4R3vvOd9jOU85a3vMWmJicdtI7WnKhjFqD0zR1NyNMsaPnN6inrNXxuLKnGeD85PavTi2sdlia4qcPSYkyZ1pobqEWbyCguD/GaJRqLfHVPeRJ8IwDKkIvi8dQjEU97yfkZXKiTtiFXhh5RFlam3pcygxkfQUMJS01liC7KIFQpR/lrW3R3O6DNZxPrnpcTgvYA1fKHmpZDQJfKF/2+OaXJDcR9kWdXzbmGDkKx956u655fiC9LzOkiVGUdiAani3ityOlSOi8Di4MO3XtU9fKiy/mruiq+xw31qONOyxrQVyQ0D02fovGtoXztoJ4Huj1vfmtPu5CfXrlTiCxRddVHOHy8Q3HEXLlRGm+Ddq25rGjdoc5aqiP3Vu4qDY6nB2egHQHQUpuy4mDJVnDZIn4rlEnjeZFnmUbUlzTlMqqMCrzWEhTffblYDkTcspYrCQwIGlsTXb6xKvzVMilfckIalVNt4b5Bn+6HfOgosKjEqFAO9cF6lxsZAWzlJnWgLC050m8EBzDGopdSe70CXVU6IOVdVt7El4WqQVRtBqtdW1LaqwmYrlm7ztasmwmbdG7eYo0tJ1p9yxZbe/zxtmnTJlu3bp0HgYaspampKVtP3I0bNtimVUG/Nyv+2rW+AanW20kmdPZNS8f5bCCegvIogsa0FHQcTSfs2AWotI8pjsld1oJULW+Rkuqs1f+xr75vct2oJKZlMDUtxci72B1DrmPuaaFpsZqcwLXWeLWI18RlUqiWYtO3BuqY+XXMfX2Tp17hGefwhYHx6n7uNZRfJcXEl5kf1gZq8anH9RDyb3Ot0CKuFrhW8+G4DK3Lo2yPR54ossennAbxVXZNNGhmMmm0Pk1LHpBVL7dZVZ3Hi58r5EUeyPuhemgel96Y1SPKdbrG9VU9tI7Q1+Bx3+lO4RPx4ZW+4tiMxBOVFdJMUE5bgXrXIi3kpT2og77NJFpr8KumfOC71wGa1BYtBZ6LXuPZiLwzgu9mcoSjTFr8dPQ6RSHpYJqAG51CBSMZY9C/lNAiaF2eFvhqzKgiOjK1seokXognqiehHs5Fm+uZeKN1nTXS+qJj8EFfaQjxode/wqB04jNpoFu89DLgpeRIbeOdA2nCFy8ogyCe+ud8NNlV7UybqUzl7fzzoLKgnzJUj5BOZYifvVAGv7WusyGZob5V5wP5amE4HYY2T/X5JiX4r39Ydg0s4lZTFnpkX318v31h52PWwaKuYTVpDZ2ASUEgdXjDzrBZp4J+y4UrguIUW2IpneLoXhFfoVhUHPLSt7sAX9II1OT2HY3jmAUoPF7+UGkoxKqnN+HSLSIYSCPrTViZoJdUJfXwKLfW1bnPz1njSPIu4KEH9fbFtdZWySpTGWFBqTo/FARhDHuzEShDn9rVbrf+vSHo0BwcbCgPWlene1qX5Xl63uHaA2V4GvJWfI2RBCuMfKFNFossDrfyiK/yRLPGc7w/kk6TWHXTlyvVk3udZS2qZx3HVRxNhlQaH5BVfGjyslRnlMR36uW3aPJ1ZNGYt+N6eKd/iP5xHYjrfKD+PmRBPN+7TkUqfxRTvPHdgN2KJHg65Uf+xBFI+XpH0hzpwIki6M1VQp7he0sRwBJBr/LQWksBoe+YrHK41hq/igASwKkBqrqnc/hyBRagn4nL8yr3K+Qt4NB4k+JqkLsmIKiGLz3orE4PFoeyAIxieYzSYGA56IR8CbWU9CFvBX1fSuWH5TQhf39GGd65Qrd/pUHXui+64EmJclQXlad7eq51o+KfdlTWrs5VwEryHVFeibQlwBY4oByAwa3fiu2d79o3djxudywsWc9dCJ7T+AoFSIW4YdBeA981GlybePrLIPLwgPBp7NHbhXNYd6c3kVoc/NRQ5F/EVzgaRyjhGDwSGmEEwiS4FAmKl8AwnfWlgpQwQqD8PpI1kvtBS6ZRhbN+Yz7zTJ9FGdFoIeAacNYiU005yIT6+IGyJXSde4hIw33y0xcRM34Xz/TBO09LyOW2cA9J4bfiELy88XWRlngaqM1AmRFliTZtNxTSEGdMo9IJtZTnSIG66JtTKfVPUf6UZ36tPAGqDAEZEfyZx9c6PNVZgTJFxzg47bpPncUHzZJWPXLxV3SN6+hfYuRaaf1zMsQVvTnCnKGkoR6iaxxf+em5p0E4V9dfgiuAEjgBanKjj3jgZ+ox/TyBf9AWth0nKeXTNN4OOaz2veG0rk/lj8v1HqAIlF+CH2g/1+QjmpSWzEYEpQtpuUcAFUJczlr7lvMztF2gX2U4P5SuyN/LCO0e6swzzkW8wBvxSjTreUgj+r2dFU/xRb/XRfVQXnoOPxSfuO52c60FuhRBNcQfjpznyhvQM1lvANwZp6y3c889lXwALfjoaxb/d4F/OvRX/BYoeYD2ME0mHLpene7Jh24d6f7TfRym6Bg7sFxpbKH6EAGDGSnARG+rbyDH/Nb4lMYiOjSm3H9ZwebfHaIBeaagN1cpVkJqWoM2siG9W1mfCkYxUv7RT/sApz6J68tiRvTemd6o0avr9SrZaUax9oRL6U3LnPNcs88ljIllKo5kGQSENVDcy7VGjt8eNzzP0yaNSa+pgR8pJenJjmvROKJWoi/jnHtdNcpCCcTJiJJbjztDZaV66VU+Zy398S8ZyrTWdGZ6cP8MMPkpr5jyNGYk05sO2rSWS2XGAhfux1rELHpEIPSU9NpMfCAPX76j19GiXVMZ6L0rCXHyltX0DFUI22kF3uutUUrdU+qu183a366EpipYolf5quxTD5Xv8fRWDCdSb4K0fZaCWKfPNGvRd4yyJChDrEDZCVqsj9z5fRTWl6ZQFcmFx/EQ4gw5u5Pt10qj+Ho+jgt1w0NpFCiTeGlJ33Ao2wDkEu+RCI8byuesfAkpaQp6lC6hDspDz2PRhnyKRi/3EK2hs1Io6Az36XScpwTNMlf7wIgAT+KPOgXauIxO6OsJUEN/5UveJ1PcdA3QqQ0lJ0cMJOEogEX3Vh+679NSOD/5WXHoWUgf8jjaxzELUPURpnySWCPuW204sOYA03cYW7WPKT2g9+hjkg8wkbmn9WL1gRZoYkqnmKAxJigSWB7A8D5KMsAc9cW8idWRNl+8mfTJn/xGMWUMrZISN0FZYvzwAb7RANuaNHmfhiD/nPiaNKiFs77WLO0CNNJ4GlNhiNJSTqY02lRfCo0yl/MBYoWyjzSugZjrfTmnEvkqiL4SabSwV2u2qlq3Rb6isTGETtHLuUKoIpO1PnwY6D5uTYzLEeOqwCelqUB/BUDRAuey8tdiYfL3vD0d8ahrDZ5WAOAG9dG0g0jaqlmNQ3p4LYlRoC76rbVjlnRNW0Pp8ynlbEBdcMl8SgRp4LGRfwl+ReKzlnFoOb9epwOE7jbw/0hHXoanuC2aUyQF7VKUwFhsVR8RNu4EMATkgJw+FphiNQzVEZCnvtmtzkD/fANTzZcisUBZW4Rp4a12TknrdfLskzftBFhrfV0MAPsaS83hQRmVH63MmZIoxxcPa2E4D3zaBPnGyEis5S+gYZ+4Xblkqid5xlgwo7Fiq7paUqMZCdrySx2dwohrX3dJ5Up0KDkJtYicP94Jam5TH3DS5MwV+NED0NSNatoEFGHtQoePN6oDbFsX0OpD6/qVZVt/YB4XTx0X5WieC0cBMgGcQtA+gr7HoPhFKK7FcxCRTokLTV1QieSjeiuEjkj3QvB+ETojANY76qMEJccsQCXRJD1yC2yoIRSaZBlZP6laT2FYtwHKMUQZ9Zpa68IGWnRZatFAA3q8gfXh4ADG9hDmPkLa53qAAqPXPvktRhiANwSg5r1kD2Hp8quD4K4AQCtIV4c8ukh0n+cDCYN6uLLKgQYESQt3e/goPRq1Q/xuEci5T1AcoIC61DlDP7Z+j56xq3S0ag8B0LmPQAwot1hYPIpa/G1CPz2+KwX1pK59FLanaQ7wQPX2hbSKA59GpTbCm5BuyL9x+eP8ewjhAAUYUnackU69c0mbR2AhIGRdhLwDAHSoa4ccOuKD6s9vYMnrELsbWae+0MHvPunE4z5lKPRQ9i6hR120sDkD0PQlzYBNRxazetawOm3SRkebnYG1AdE6CFXtAKYrXBOa3cwmQK52j+tOYhOxthMvW404lS7A2xmHFUC5Q+BcWYlsAvlokmYSoGr1RzYJOE8MMpuk0dqAd32pQqhZg3NtkY5h0bgmTadqrV5krWFmbTqCVj+zqWHOvQxaoJlyW8vQ1smsSkM2OU/QebYB1BbC1ezRCXahwWlDgUXXCh4Z13XyrdNhTAPg6lw0cbxFGap3i7xrxKsvE7zuI6uRf4uOeJLy69Bdpe0rAjx+59CVaXE0nee5mzfbiy+8iE4EoByEdXUxHY9bRFihAppi/ZxmjCvouc4OQsRX0LXaS+kUX0Af4oagicT6XcTXdQDBwqp6+o9jFqA03oL+0cPByJEYiyuk2dZCdNwLR39+a1p+LAUHhPTWKEdIfIcUBFmLLt1KQVjxyLwn1m4rQxQpQYkSLIgMqyDFKkixxLQINJevABjIopDbx2OsCPLUBMd4QE+H+hM/fPmANFpESjqPr87NrRF6GASwRDnasFMumPY30750mb6WAGC437A6IHBl6jjqAW8otty+hLprh9eEumnZg2YWUy3v9YcIh3gRA0D6SoHGN7Iezh0KogmEOQqlzll5ayGqesEEsBY/h4CHXMIEINaXGUYorxbWBksQK2pcF69XDI+p96CvT8AgnFizWlOmrxdox93c4yg7rCisJ+/CtVVVH3sFHpMLffGRhXe+vDYs8JaNqbrQbgMUboW2WpGVQl4YzNYdhxSQ1CLxGIDtwZ8VChOYrqAk6DQdCwEgRretQ9s5v7iWLGm2uL4CIbBWJ6V8lDfsMjDC3WZ1En3aFalAlnALKUdfFeggR4rXp017CprV7p0dQE0+A83Loo76OoKqv4TFs0ycZcpfQeaWoWsZOnQWbT1oU77YX+ShjhcadG8cJDID2mGAZfr/tnfmwZYc1Zk/99bd77vv9fK6W621pVYLLUitXiShDQwIZEYYMNgYm5khkJexsQ22bEAwjK3wRHgmxhPGnvEYe8KeQWCBjQO8YLYBBEgghCS0t4SkllpqSb28/d19rTu/72TVe08L/gcpoiNQdeerulUnM8/JPPnlyao8mdovtUXZtulYBtkyOk9eLWqt3rVBnVJYbtoEeZxQrVmWa+1grJnjKZAIZAQ2+q372niz2WyunBuNhp/1TAAmQBO9ACylU0jp0ntpHuEQSL04xzE7k/zi3S+3J/sl23Hpv7NoatIiLKp8ieFIXhP56J0GBUxLCnlMDfZK1tx/t83c9w9WWr/bduy5wvqFKcuV8v6ZWDtO6MV4j64s09GclY5FvZbt+9Jf0YiO2qkX/5IVpk4zuYbILca3X4qwMlDqWJXMEKcnC+uJB+3JW2+w4saz7LTL30ATmbS8toXK5TwudSsrGeBT70LDHi7bkW9eb93lGTv+kp+1wqbt/rUokytZCTmyevGMrO4PhVLHAEF99il79OY/s+rx59qpF/y09fKarCdXF4ZQEbJj9tN9onwAGD1xBkDb/93PWv/ovbbt4vfY1JaTGaZkrVDWBqTEyZKhGh//tMRLb4DVM3PAnrjxk7Z+81bbfOk7Kdv18BVk1wvatTOy+722RZmGPfLNL1hv7m475RXvtPzWM6xAHnlkkOxhVUW9NxFmh2HBfH3Gnv7mX9txlT4W2oQ9cPtzZ5KffdllttQp2QlnXm6n7brY4krFMiX4VtnkijRfrDBAvgPP2i5LLkF3fPz3fbh94bv+sw2K60xL7xaQU+4uXmdYdmA64LpIwx7Z8n1ftUduvMFOuvgtNr37qjA1gzwy6IemVwk6Bfra/y876Fqxt2A3f+qjAPGCnf/2D1imdpxNMJTLaTOHUsW0cF0B8Khn6UzQi0KjYofv+4rtu+l/27ZL3mFbd76atOVOU/L5bVqNUsaFd6iAWyxXl/pT9r3PfpTOtWt73/ZeiydONq2hLnfTjOKhF2iR+gbr0FlEdAhzD95oD954vb1q1y570xve5HOVCpp8hsK5GwuFr4bcpwOU/j3++ON2ww03qJhXdnXRtAF9zQsvxOmE0AsBmIBMoPTFL37R9u3b57RvfetbfUqBvtgpjg6PA73idLp9O3TosP3f66/nPu0LPu6548fIF+/S886w+ew6W7RTffY0mmL5siYjVlGAZKmRUR3gwKLBpM63Zm3j+CFbGFZR9K0Wl7QDcdH0eT2ikPWVQz1qtl3i3MbCathk4yEr5hZsNnu2z4LWPnraJVibdqrhUfsOHKMuQyMsIGvO2FZ72Jb6662z7gQaMr0WrEVq2MRJK1BLXgigsqOsTc3dYdVsbIcK21DwzQ4A2QKNUIvq6yuOQJAWFfcAWgCk31q0E8dP2nxv0gbVM2ykWcVaY1szjHMTjBVQlpiec4AiyjLU+7PWflufnbHDmVPgpUYLLCK7NuEkDsAssBnIOpIlhjzZ9qxt7T1GLz6yxcnzfOlgNe5cQetZC9SwxpDD15LqUc79Bas0j9pk9pAdte02qm31r0W5MmmBuHLU1WcwWXu+jTzAICtlS2+/TY7r1sqvswdue+62U6/YezrD5Q12uFG0UXWzdSnzDI1OeyDKYVtgoHd3GFZ6pUXaPTupfrc7gB8onuzeBKkvnhpplKWesa71HkrvozrjolXn7rfTCwu2v7/OGuvOJK6mTgDCmpAK2/qK6GtDAaxaHiZqz9l0f97fZx4snY0xPeXryWfhawBAacpCkbKsRzRUgLLQqjDM228nlB63x3qbrFc72b9CahJvvpj1L3HSC723GQi8sbhynZ5N9x6hyEZ2NHeK9YvHm6YoROiSZpEXpBcCKKzBIcP5CMu72HzYTirM+JBey96on6JG/R2f3vWhRQ62eqekslD9KQhcNHQT0Oi3mvtagEqDaPRcM89lGaU0Crr2I4GKABmqb/IkfQEUKvbjtXHneXtfb/3a8XbBG99nhQ1TVPQkDRuQiMqADQqpYVjcoo/Vdt5Fazx8l93ztY/ZCee/zk6/4HVuQWnLc805kQWlT+tahTHbKaCQDCr6Tbv3n/7cWo1HbPdPXWvxRhodQOMARa+nT7BUHVYH8THXm8QdHt5v3//8f7NNp11sL/uJN8NHDSAIPYyCFyTFqRe3Qyp81O3YU1//Kzty4CE7982/bvlNp9EoSLtYUnt2y8O/1FDR2ndv3G/bsDln3/3EdbZ1x8V21qt+3t04fB1s+IrVqsjHVzPQMJUy0NbnD9389/bEvV+1i97xYatsOskBXAClnXaDBUU0ZNAw1YeGC0/a9//2v9vx206zk17/y+4+pE0+fW4LyiZNl1rIgVl748X9ZTt429dt/53/ZK/8uf9otnm7lVFcX0dbn/QVB4V1uRUHIMwuPmL3/u0fWqE7Y81oEgvqGyqdZxyvuPBShj4b7bizXm0nnnuZL9ubAzW0eYAcbDM04AzlorWftHFnt9Oyp778l/DTse0/+R8sW14HcGt+D2VKi00BX47FI4azPkx86Fs2e8cXbOrc1xCudItaHvra2EErMqhRa/VKdV4RoG+NGfvB1z/jHdiJr7na8htOsgpalqGnk2uT1sDXh5ZgQWlZlIotPXKLPXHHp2zjzp+yzWddShWhd7LEySMAVCibAVaaHMnHrXl75FufZIjetR2v/rc2rm2zYpb8qV4iAVYCjwF1peFexopYRfVHvmMHb/8sFpW2t6KupKN6Q4NeSoYUoPjpoCLAEbCoTnW9tpmvBSgd/u4piaPJmBrGpVbTs2k9L/1WjsikaRwlgLtHp3zfnT9GzsIv3/saGxWOt92/+jHLV+laZALTGAp66F8raEw0hgyF2h5G1nz0dvve3/yBbbv8XfayS69yvybfRoo6VI+meTRaHlWf4PWFKN+J7ZaPf8Qaiz+wV/3KX9p4ajNAgIEC7qlNS+FVMr5TMAAy6GFFHXnIvvbnv2bb9/ysvfwNV1u/jDKh5B5H+cBa2DiS3h7lYlBv9/7Dn9hT+26xV73nT60yfZKp+9f2UhGNWpWv4tewECsbMCAdhlSf/dCVdsalP2Vnv/HX3BfMZ7Aju+ZDSSflLKzhfzcGGLG89n/947bvy5+0133wM1aaPsHl1igho6A8hFACGk8fZe3X7e+ve4dt33WZnfPW3wHMACjKN52oKgUMIIvcyFSsZ+3h2z9n9/7jR+1nPvI560xtMrnfqIxkjXhZ6Z++REl2LLO48bR9+3/9pq0fHLYuLW/f8+wsfM7ey2w5cwJg/247Yc9rsTDzDDXHwTmXAG74dBJGePBC+WCZ3f7x66y5NG9X/PofuT9cqDN4Fq03JA2ZVceRdYjTevA7dutn/pT6erdtueBK9AFrm/IZA/paKkeNfGhYGeQx6gytDDB99fo/tmFjzi5593WWRS8msJbkdtIXEKI/RcqxCZ9jfQFuFWz2gVvtxr/7Qzq637CT91wRXHDQC010hSUOaB04xRvq21i2mz79X63bbthr3v0R371YO8cwpjWtDy9sUK1JZn3JLKMc8/d/y75JnFfuPt7e+G+usKnapOuQrEefmuHah8oB6EPoDx48aJ/4xCf83jvf+c6VIZ50bi3oCJREr0XptHHnPffcs7Jxp4aRsrxS+lC+IU4Ps/aJg0/aJz75ScqejhJAvvN7N3t+L+QhPTgmD71C1EJnGSpAs6flsyYfKvl9ye/Nl4eSD1sx9FTa/SSO+1gNYyoN5SCOAxTYJh8z+aRp5ra7VKAI8vT3CUKopybThdnQIX33RUuC50UaKXj5TiWY47I4PA+epXFE6z52msHNPa0QgNlGpSILAKP4AgKfJZ3wpXjiM4AKgUag9w8I79eSOYfCe3ous/ITnwwh4Ff3JcOY3ljA6rPJnS948kAenHNF0iMPlY3vmAJUa7UATVIMPAW+vXwVL5FHM5nVMUhmn2ag9NWAuJ/SuiySO5Fd/oDZnHzx1Mw4hMDPc0xkFy0azdIAFonbJc/YyqWRVcp9K1cBi+rISpWelcoDKxMKBYa28ayHfGlgkeRR+ZQpD7nIeMBCKgMipFHE4s7lsEq7h5G5SX2QB8NS396KvEpFDWl0hm/qpkI6GvbFo2V0adbKFfIs9ci7B2/wUwE8KwzxqgNotRVYh/wZhua0Yew8OtGk8yFPzYSnnlxH4adQgT9CvkxZibeSPrAsoX6z5A2fyFasYL1wriB3qQLwldvw1iFvDe+x1Ap18pi1U07caK/Yeb5duHOX7b1I4QLbfcEltvPCizlfaHv37LHzzjvPdu7cueKOot/aiFObbV5wQQi63rt3D9fE370bmnPt1FNP9Zfj207d5vH3QreH9DzOhXtsD/T6vXv3Ljt/104PE7UJ76DUob0YxzELUPQ1cKfKCQ1CriABDBSodG+oKIAakIAHGjXsSC4DamgCCQXRJPGw0EP85JncY9S43ZWF3k7A4UDgz7nm7A1QwMW1XF/0nSaTGSYNWjQhBL5CULywrRT9GjLoS6HSDyAoGgFMoPM8EllCHpIDpZcc4ofgaUnmNP3kLLkFLj4Rh/KSW4qDn9IUXwltSh/iBDnpnz0PlZvK0J8nAKvyXZU95CM5xtZz/tKQphmCQC25Jg85FROL8MMVN4orgLf2fytZkQS1AabcL4QYMdaU9jUM61oxPGe4Gt51yUoV32N3b5Elp/eMRcq0TCipbOX8W8Aak5OthGfIOc6WsUSxlPS+UBaOhmAlgB+ZvQPSWZatyN3OZoiE4HK7EXplKaRIZYouaHfmIlZhJaMVKABino8ZcoNQdHYa3kXu2L7aQahOxC+6pQ5IPkFjhvmUQcZqDDdVmMEKKcCb+C+pPOBd+TqCqkOEPnbXmYJVsB4z6wrWr+VttlS2A4woMpNldLzslk+6qaaCroM/XckmqpUkQMe5Ui4mIXxU0UgjS3lXa/K7K9pkrWK1CegrZatVJ6xa0cafpFWBP8o6WNww9uLg0zEMUFgedNmuiMEvbrUhrYJIAC70GrpQSm7qO+CEZ2vBQ/RKR/f13AGKPBRfe9+le+mlFo6CrhU8PYJbXLJukjxWGveaPFZ5S/JwECRt5ylt3CkYKI00jxBcDn+ZG2iDhbXKUwogasvOB7LLpcRBVmkApEpPNAEQFTfkEfLRFx/kII7SSMtXtMHqDLx5WSk9WUzk48CJPEH2kNaKDOInpfc4Uq1/XWu1SwnNAT407CCNpDy9/DxdgYbS5Qzgha+FohdYyVJERtE777Iaw1kdinwcffgJnftmyvIjBGtR1qfKNICBOo7AuzpDxaHelA+QoDwFtt65JDy55SrrFkDyNbdETx6ur55HUm+K4/wQJ82DIFkduzXElBxpHO8I1XkpTvJujfvu/kMm4kc7GetjhjbXnIgqduiwNu682b720MPwkQfLEideVVpy6Fr3isQLG3E+N6Rf+DSUC/SAJfcKAPDKxp1p0H2nVxlJEB3p+YU9VFTH5qH6dmUMFeqBhiFH12DxpPd0hjKtdf1XHL+vkDQYD6osBdEHch2Kn75LchoPqqg0DdET+B0AMNxXPqJzGt1Lg/9O7nuQJaV8FT+k6yHJa4VWcV3RU77UcEO+ep6mEe6l/HGtB0TzdBywdL0mDz/T0DhLTsVJj5BHkm5Kn8RR2aV8eQeg//oteuXrIdCuDYGGP0n6UvrnP3Rf/CudkJfyVj0EYBKAquNQunoueqWX6kXSqQiQBZhpXIEwfASn6BHW0NDPTi/eeObL31AmIYg2BHU+zq7nofeEWCHK39MVOIU8PP00kK4PgQGccD+AeOgQBD4BgLTZp8sJjdM72Ic8dVZcB7ZE9rQeHAjEHLJTi6alWrJZrCgr2uYNm622Y5vN+PyV5GsmkdaWe6hj1X+4v/Y6BaU08CeJpzqBlnJI4zw7KK6qUO+lPMqLcEjqY/QQa6Gg/BvmSm8cCiME4XdawDpTKa7A6b2Ubm0BKh0FbuhTmsKziiElDXFXInLoOs0zKEBK40/Wkq7wmxz81IvScJ3E4zLE1039SeKITh6m4UcSwhHo18qjizTo4JyQPzttT8kf67dk19kJVg6/w58QxKfkTG7yNPxbK/vKox96/KvfYZJ4oZyh03CVhu4yJmDhj5wm+ePlh9UI9ARpFC8pkxTg02s9czq9C5TFzKXicA70Ifi1H6LXLclIQ+TBqqyKB28rfCXpcy1eAs8enYPfnk8Iabq6T9tO4nBK6EN6Ckkc5ZHk48TiRyEO3+v08Ve71GycqNnE+poNGCLqnpNzBJ4DyKSH55fcT4OO1TNp8kfTDVaOJMEVGv/73ONfq+If5Vjl/hg7VKdUj5/1/k3Ot1qyV/5X/pWIIb9/TtYXG5Un93XWZ/twJg4dp2hHg9hpFXeM/rsjr+Kg6PRdyohKIQl/pvQVT0HXylP3IfP4ykd5hnyHpO2+Wk4b0tELQ6WjdPWFxatV9+Ff8ZVW+kVH/lnu25QGJeBxEv48HpeeMM+h9/w461kYCUMvWo9Pegpci0avRoLsypskuPYCBZi1zPAzZU9kJk4qeyhPEUGqPNBEOTC77C63zkEW8Z/Korojlh8/TKl1UMNBZg7Rh6WGlQ6/lTc8Kq+Qt1KSyuosmRVJ8fX1MHxB9OJLdEANWs997Xc1bhqZGpJCKm8aQh5KL9CG/HQvpJ+WkTYXdfokHfHg8jlvgc7TcjkCTyrLtffTeLrhn+q5DrwndQt9KM8gx+oLaMmgXMhHslD5eep1qje0SrfnC0ioLBXWdgrptQO0n5Xn6vP00C3/6suF55OAUnqQo/74kaYhXgLdc9N7IY5jFqAKcQvbdsD/hrt5jOSA2xs4IHR79CE8jrtyX6CX61NRXa0tNHSPffUscnLVdALT6gXdrO+FpsmD2VbOXT/kK6Z1pUWiCXpjNbIBCiUXBK41ca/rM5jH1uuRHpUrZ+E8aWtBszjucD+GlrSJ1yfo0/+AfLVpgMKoL+dcrXqQR462u6xoU8d4kLW4g9ISBsgw6hOPfORmozlXUUbOvG1o9TlXfEOP/IU2QwzkiPtyr+B+lyKCPkvG2ulE/Mu5tj/UxNKINKHtofnwOZLTMOlp01LJMdY37QFlIFcieHa+4QF2OYv/AFRymRlGbeTQa+MSCXaQB6Z4Hiu/HnEJQ+IinssSe5loIi15UB9a1Ob5Dyl5aFAB2Gh4lP8IGVwW5JQ8Ah+Bgmh0qEGIdqRJi+Q1QlavO+Wvs9Lw52RP/gywyCrEUae10jkoOKjqDK2eO7ipjgXOAovQuTktaauuHZCTeEp/pNUgtBQN8QKf4kkh8KLJmZIl5Sukr0atGeDKN0mf4J0DMmuD0cCfnkMOvQMsOivvhu6oa+24bXkqeVsnYzskZ9xzNykBRzq3Kb0eEsc9AxIfPJ3ToN967nG8hJVviCP3l1XaobsjyS/P57uFwk3ySSK+wMcxC1D1/BbrZiatxzi7E2epELPmsGBLKH4rLnBvbG0qoxn1bZmm06SQWpi53Vyb66Ytxl1rZIY861sdGGoydFiK+9akTFuYZe1oZAO6HM33bIFYsRo4zwc02mHiLqAK1YRL2lzwr8oWrVucIl7JltEe9A16Tb6THxl0IKDO3gOKX+z3JsPNbqFiLYq66c7CGeRAPnhQaNCCl6nopmQgpzY8t/IF+MtbA23VNunaMqqBJi+iyGGjT+00DP/ZkTXIqEmv1y5oOQ7Aw2eZy0+qC0jJXQIlE+8ofh3Fb8Q5eCnbIFOzXlQjDxoD5TgUULncBMmWyN9DhrquZVXky8HbXrLAQwrEXgaEniYiIrsaXDSsWzEj3y6Uncb7fAdq7f98uRZPQyAJ2AuUAd8uQWf9dvCXq4gaqIDDwQggdHp1IgTRK67oBbYAs6xILV8i+hUQJjg9daVORvGVh+47PTqi9qZNI2She1oogcdRR5fEHVDfeibeBSACLZWDnA7UOQQ5xJfoEzkcdAEdKQ/64Nu6OzApD/EiOoBQAVqlo/QFGA6Y1I28CLp0sHU68bjTsMs2Ttvbzn05aTas1WmSVwAVL2PaRQo0qcPw2pCCj2i0ZJAsKOXVxSJ7Nm1XZxj0ODCm8wgdEQi+WMcxC1Cyagb9RRscut9yRx+wwvwhyy0/hQW0ZIWFthUXO1ZYXrRo6ZCN549a9+hRK2OR2OFFs0MLVpprWf4ITXGmZ+XZvpXmu9DXoa/beO6oxbNHbLg4b4Vuy/pHDltnZsF6cw0bLtHIl6jcet/iZQWsprkZixaPWPvIIctQcZ3FOcvMPmWZmUM2XJi3UX3ZstqQsd22cbNJGovWW9SmkUdI56hVenUbzjxpmbmnLZo7bPmFBSssNjwUCeXFZSvNzlpldsYGjz1qmR5W0FIT2qOWO/K05WcPW24RWRtYMs2uFXlWnJ9FvqOW5Vl3do7ywqqambHh3KyNFuvI0IEvwAZkGiJHrrlg2eUnLV543OoH77LyeNYKrYNmS09Yf24BOVB26MfQGjKPl2lFup6dt0ibgz75mBV6QOjTB+DriG8eOmgs2KC5bMMW5dYmtOrWqy9Ze2kGnvaDMJQNJkvf3/M99+hmSsAzwIr1O2yTTodAfWh3Yb2KknXhk2RpCJ1u212U2p0lQJBzt851m0ajGfWJ9UP1q2PwGdvaew5+RqSpBjcgXos6UoMe0VD1isAAZ1mBsvqGxOm2aYBd9I7Q42a3t8w1HRZpjeRMLlqAKAugaK++FiARd/rWa3UAcAEReSJHh/hdrAwBoltM8CXQ1tb7auidFiAybMIngNGds16TLrTdggflQRz4kUtSH8Ttt4Mjuxx0NVF3qdOxOvrWmFuiapr21NKCLVMffer+8PyyzS0s2QJ6Xm+2GHDQsVAo9VbbFrm3RJidX7KZ+UXOi36eR/fm0ReFBvql1wUd8lymncyTx7zSJM4c5/n5BVtQWFi0paWGNRvqECUjFSVT+UU4jl1nYXqEWS0zUtphseZb5DaYlRkO5CatgGms9ZuG40Vr5VDoXhUAOmIbB/tt3io2njrJevlJ/8qgdb7dDymnxcqwAzoVd3WRs3D5yF1WKdVtobjHBtUp8y93+iqnLxz6nDLOuaIURi2Ge5qBvWzTjQdsdrzOcuQxiqp0gjXS15cevZCUCS7lkjUAvbVt6sh3ZK/Y4sSZNqhssYLM4Ujza+Rbp8XjaFH0XKMO1gZxRu26TXQexLLbZMPyyTYqyhF2aBmslzg3RY3xe9wkE20aqeEtZkPjgJUGh6xV22H9XNWismhzpF82+afpS4yUaIxVNcCCi5oztrnxMA3ebGF6r88N8s/g/qVPQwn5tGk4Q3nTs0YxgHrkgG3MzdjRaAf5HGeFSD5hJXP3IORHrDAkkaWC/ONB0zYu32/rSrEtRevtkdu+ltTs6nHJnrOxACetU9pqtW1nWk/ziLAeC1qIOypS/GMftmgFCh8CynK4/TNWwnLMn/NGLLoNlHsOGXPkH+b8qA5GmvcEiGmJnOFjlP/MPdZYf6blTr3UqiWGnpR3TNmU4F3vOPvIOgJEoxHmUeOQ1R+5hWFw0/JnXYnObbQalmCcw5IvTpJPbBVkbOUYupNHqT1hnYO30eHdbMMte6188i56feooqy9q6SxsvdcJQyZZHBF1vPTgF+mFGR+cfqmNJ7QdGbxTjkPpBmWppYrdp7BPOiBw+6m7LLN4v9VqJTvr5JdbrTBprWpkY+jWaUUNBtILyKZ1xGSSaWfgg08cJO+MzyLfOL0Ri1X6nX584UD2dAgo6+rAY495fSuOZpNrSWGfqe5v8tO3ioFe9bGgbaceO2DFUgUgHNm93/+uJ/tCHscsQF2060JbiCZt08teZ+VNKtwJy6Ls43zF13jO0fsNxstAAMOZdsEyTz9mSz/4kkWbz7MN23fZqLTBCjRubRQQUfFaorYzrgNQJXrHjmXoSZfu/gKKfNSq299s1fXbvXFqVxU1OHcwptLVG2u8raU06rNPWOfez5ttPtM2bd9j2fIGX9NaM8aFZzr8RScNW35ULSyD+MH/h8U1Y9WzX2fRhm2mDTI1ATBX7pEHPTiKKwshZrgQqdIPH7Tu/i9bdnKbbZDyAjbyxZNfYSZXswwNNwNAaeUD9bQjrJdFGtRg/kFbt+PNVt6w1R1bo6JWBZDjrRohw0osGfmwya8tXjxki9//vE1MbbD8y99k2ijTJxEW1KgEUvLf0tAAiKUxjoeL1rj/duvN3G1TZ11l8dbtDN8yvsOM5vVA7squdzWyZjRUWa7PWfOuf7RqJjgL/+B7z3UWfu3ul1F7G205d5wVt55uwxKAWihaCfDIAQiZKLYMoNpV+fcZTmHJ1J74hr9D65x8mY3pVPLQ6dO6Zk0LoHz4xxhqSIPrjknj4Pds/dLDtrxuh7Wnz/NlcidqVcoIIIRvNT2tq9XuDhiWdizXweo7fB/A37HW1lfYuDJtk9m+ZSjPfnlKczGtyLCwDmgN+01fzSBaeADr/jZbmjjLbPoMyl7eDZrIuDpZUitW9KjnIUPDqN7AygcEAZf+5p02qp6EzICBllooVqyAjuhdnzq5vhYzJN7gyL2Wrz9ocQmYGJF2tmitiE6QDrhGeWcB2Tq6K8Dlr5eJhmACG+Wv90zp9dpD5SUQFehoN+Qe5SZ/PFl6SiOFh3CGljR0aNjst4ir93Tq1O+87WZ/9kIexyxAnbvnCutuPNUufft/wiJaT+Fqc8kOBVH0tZ/z/vIU5Kc3jTtUwIH77Luf+y92ykU/Y2de8gbrF8rQZkw7vkBuQ3rYEZUZdagEGmuO3vh7N/wRZu3j9qqf/wMbbtzqLi+afwOpa67eRain0AtirYbZPfqQ3fLXH7EtO19r517xC9YrTtPjSwG9nojorAdLAuskz9Du0c//Tzvw0D67/F3XWhZ55Cys5VYieiX19m4cq7Jp3P5SH+D8wh+9007ZeYWd+5O/jAVZDBMYyUO+V9ogAXuC4UJ4iV1B8R/5xqft/pv+zi5/78essuVEXxdbsmiukuLpY4CWGdaaVHKKzbfn7J//+P12+pnn2PY3/qYNijXATEoNbRZ10OsRvX9BBoFmFoA6ePNX7K4b/8be+t4/sdb6E3y5lUyhqve83uO7EvEnvBsC2htP2e1/9btW6TwRfPHu+LYonnGcfeFrrZ05zs687O12wvmXWVyeoOypW+R0Z23AJEddof++9tWYRnbfp/7QOvVFu/gXr/M9/hxQkVWNT8EPqTSdRGuYt85DN9nd//QXdtor325bLnpzYlGjO5SiNkXQvDMt3BdjQY0AwAqW3zc+9WeW6bds18990KLJLQyHu1i8Beth9WqjgwIytugkx1jixXrJFh++xW79wkftrCuuRo6fsJiydGtc1qj0wlmSZScZxlZodny5lW6/YZe+4xobVk7wWfRaGUPr1etzq3YL1nByPMIS7g5t4Qc32e3/8hc2UVqyc0470Xc71pr8Ur7iMLK8LDTk0bpXahcahh14/ICXySknn2IbNqynrLDofLJrONT0Vc/6KttnGPnYo486qEkvzzzzLAczgZSPDChSnXXhnQB6scyQ8eH9+wG0mr+3fDGWW1nl9hg7iqhQhrFwpjRpA6ymWPuX0cMWSlgEFRCgggJU5LZQtEIZZaaX6+qdFWU4kjlDbzTGItAZM8qyFTUoAj2Q9inL0n1mBTooojzVi/QeZSqjRBdZofLLHjJWJX7GXQ20FhDDw5aWCS4BTOvdRaFAA9H+ddqO3V0tUH4F3Y8y6okK1mzRyLVERqFmVqARYtlpX7Wc9j8jiCfjPBB/VYYgvTkUq83wDitGQxKC9nCTnFqmJSpTQFWQoVawIfloOdtBa448GTYyPCswTCiDauI9yILyw6PWGtKaUjn46LUGKBXpcq+E/JK3lISK4lHOOmu1hjG8R9kJZCdvLNNMHhkAJ8lZ8fLSOcPQC6vK5ccCy9esNaDssUIjfSJ9viPqW3vYsAGWQEYbq2qPLeqJYqYcaDwTNLYJ5KtSv7UcDTlns1gt8/025VWGhwoBmdCBbImhEVZRBgtsjOU4LFM2taw1ciM71FlieAb2Y/H1Kbd+hbKuQrMSCtxDZyZrWElVWwAIZ/TuirrQ/dFkyQYTdHAT6BYhBpeHVeoGXgdcdwqxHW0vWicHqGufKfRU/kta20orV0Sy7jzQaWrT0ImcLQJOS8jSoYz76OMQGQfo9LBGBwTfoymGp7W8DZB7QD5xOWPL3QX3h/v13/wN+633v88+/MH32wc/+BF73+/9vv3WR36P39faB37nGrvmt3/bfuWXf8mqlFGR+vulX7za733wA++3az/wAfvwtdeuhA8Rfveaa+y33vdeu/zyy9DXrl1yySX2nvf8mr3//b9L+h+wa0X74Q/Zhz70Ib/W5p3XXPPbdvXVV/uee0M6ybXzrV7I45gFqD4ApX3mpWzaz0zOmto4Ufvqay+5rDpvGms1R+HQkMc0XsxBei65X9A7co+hMXrCb+jk6lEFcLITA8xvekEaVpztWT5u0+AEWFgpokWR86Rfgr5cCs6j2ptNG1jmacjDTNdNBu2lXyaPop5Brzzlc+UbWRa4T5CD86gAOGUayAFgAEDOl/KREyl6XOSM7hIHvXZ/ML37oXHSe4EzvpfahBxaoRsjc4bGJR8odJyhLrxW6NqQZ5wZ+pBIbl3iXU6wkjNCdjX4vICNvLXnndwzxuMliyk7DTPD5qOBZ+ef30V4ldsFxo+VsF5jbX3EkDrHmK4Ib74YG/m4ky5nBW3oTHVxPYIHrE46DZCWzoObz3PUGL5NYnLV6JFrWEk11JG2aVPU9xSNvZYf2wTyCItpu1bCSigBdnk6Flmg2sUlA89a4kKgrf30PMCzOhduMcSkHMinxHmCdLVSQpX6o+0TKEcPGXCReiGpajZPHsg/0qLLMffRGywh0YAZhLFNEmrwVwVYqzwH4nxt+yL8SVL1j9oINAJUIhjPwkiGB+JVriui1159WSwdLVtDla6EKjxWXW54RW7xVMEyKo37lmMIugGAW7duytZPT9r0pg02sWmLRcdtNtu8xaY2HWfT2mwTa2kKsC2gc1paRtcbNqyzjRvX2/T0Bg+bpjd6mN64we9vWL8OsAF9kVm+dutFL9pN0G2e9rOnnWzkuX79BpuaotOV5Ud4sQZixyxA0RpgDiVHOTT0oCPwxi0/paL8lKg599misckVwidAjTWcI+i9E5WtYYsamRq0O26iIHIMdQdkmccorVwO3M1ASgW9hnh56INDb+LagLL4XD8AwLR2MHnovYs6DXd/cFoarc6krfR1X/v3WaTepc+Qizjii3jKa1WWAA4ChfRFtQ8VUVznCz5dFp3FG3KHOFyTjoMNUXzKnIazALRA2suLRpIGB16CXEJUPlq0P5VdDcrLUkAJDZ1+oHXZY3eP0aerTKZHHqEslId8xyRrUenLwqMMwj5/8E7D9REBooi35ztGUQ/raWBDAH5EYx4JhGUdV7Gcq/CHFZUtM84sEQA9A2RHgOpIK1wKHOWAK/DmuUIxAUZ1FHLyFSiM4X9InWUEmMijzUF9M0y30mS58Yw83SovMwQjj5gx3CjXtzHpxNCOOI/pVMbE9c006RQEOll+a2rYmI5gRB2P86RBUJkVtQqq8xNWTihrFQWBOHzERdLP0wUrDve0zFcGfsSTghZOzajjIShPya20x5QXeIquUM5uUZesy+M7Ds7adw487QvqFSsVdwr23bWl4gRdl7AytZJoGkqMChTczw5lEo2GdORI3WJJJ8+fHVK/PYVn+/y9GMcxDFAoDw3OG3XSKNRI9f5AjpRqVOG9icAGcn93ojjQch0adaBRHHcOTeKEBgY56auRitb9/AgCiODYGQAjvDgOICE+BGoCwfBb6aV5SBEUL6QtWsXTVx/FicST+CGspU3z0X3x5Zay8iD+Sh6J3M4PCp2uSBDyQZ7kRYe/5Ic+pC36EBQ/LSfPQ3IggxaE8zRoUKnDcHDEVn6k7y/ndZ3ESeUQX8QL5UscB8xEHudJcmDh0DoETeHvc4+wlyFDJxLTcFl7Ho5ofDFlrvV4fUt6nuXogbQ8shxluUNq/JZ/mmQnz9C5qFw4C1QFtjwvwAOxLTvGGo3zurJchnRBTpWf14PKUlYl1+5DR5kA+cSBljzd59B5IJ7KFuHC4n6R86SXxvqKqF5Cw2v/aup8JeXh/Kgsk/KHJ63KwC+MFf4SR+Wk9zvyuVOHK7nV8AOt7sOH3sth2eWoa+moL8GDAAePLtgtDz1qDy/VrU8eWuFScdcCR2rlKCjO2pACjYLeN6Xv8nStNHROg7/4X6HX81DH6oLSl+cv9HEMAxQNQic49MBvlYGu1cj8mqDrsGqhqEVDEI2C0/MbGv3W/XAkdB4nvb8aN42/ko6uk/yC1ZXSicfVtNI4KW24Dg3b46oiubc2vRX6Fdo1aereynMBKHFddoFe+iwolI6VdAieT/Jbyr+SjvMaeFIaopNZn8oVnFnTvAO/aVzsiSS9JJ6nF4LTPeO3mnl6rF6tPfqYOHLZiLDOsgxhwAzLjdXoizREGoWDNEM0ZapGK3UFCGjXDJHUuBW4LyBRo1ejTJgraLgfYw/wfCj3FaVLXCVFJqSJ5Sc68tG0lQI0eaWpeSIqD+jzIwEJmQHUxahrjB6xZBjOYB2BPQiK6QOPWjvdwVvRXCEFogmACVwIvrJpwhvmtPOWJx+t+KqF+bRRao7yJkUrwmQJq09LDReRowAvGS3PQrwR7EhHtDWWWNt72vG2c9cZVlfHlZRHADZNDxDwPfP3DzvSIRolRPnrryefBN3TX/SCoCKUraXk9FrFtxf7IXX8ox7K65g8pCdeZklY8Y1K7q+GcN+LkYL13wkNOsCFCvuZcXWsxgv3w1wPgtOt0utLXpqW3yO9lTycLqF9vgCNV7FoxEOSll+voVm5hk60QV4xFsIz6Py8Ji3+rI7/gzqFnyFPT8OP1ftBzrX5IFMc5Ar0Ca3nQ2NgdJXG0/3VoLz1bO29EMI9mPRGofDcIxpibZAHdhMFzHCTe670Tq7BBo1XoEh6AqWQnP5AOxa9GktoICGEzJ0v4kkci6CTlaw5cMTVsjQCBAgSXiHyxJWndEgX0GptMX11I7shYBDLOueH4gxlZXGhr69a9DCr9aME8OOwDZPzoo88/jUuxFPQ6qCqFc2J0o43WpDRCBS/A0+I65jn8WHM2fJ65JC1768ynF2PwKh0zEgQ+eIeIZSBvrKlQaCU6scPA6iV+ymdB8/Egz/V2QP588NFJ/gz/Q5K8oIfqqpj81CtEYJPVcaBwh1YB/okqtnF+k3Fck+f9YN/kxpauA7PQhy9dE7pVY7Bj0uNT5XHEEP3uNb94KgZ0tR9TTMIrglKVzyJF/GlOCE9pasQ3BJCPKWntIKza8grpddneHfk9XjhWvk5b+Lf42ApOJ/hnsvRVyBdTbEY8ow44i9VwJB+uB/S1ZygIP+q7KJTWdEHkk+4n+TFdXAdIT5n+bjpuXhwvXSe+O3pr54ld3D5CPfER5hdnB6Bv2cf5SEWzJBxz6hgQ4Zg+kSu3aBHo54NCb2B8g9zsjTjWzwEB2f44Id2mfYAg5qG4FuSUR4DhZi4kpMQwbQ+uGjJ5yGy9gmasBr8J7kmff0eqV7hQzqRJV3RS/ZerH0AtdkG+aquFE+z0FVmxBvyPMYK03yzrCa3AhqSY8DZtwbTrHDxRpqaJJqh0AStMZaR7yCs8lU5am4faburzKBovVGZvMmLtLQqq2SQhee7McOLAFQ8FlptK9cXMfRIiJQFTNIJWU469FtTD9YCVxpEl+qPzimgiV7ntXSajqCZ6eEeNAQhFFwYbLwoxzELUCsNWxWrykP5g39V8HnTdU+/aYACFEqJwgoVvtKIUKbgJxdATQ6wDlZqRJpcowaHYnlhe2NG0Xne7yuPNJ781FTJ8CRFGmPccy1ggLWQnvggH+eH4EDC/RTUPA8BBb/ljKtn8lsLfmECW808J38FJUq1BMtFsoU4zrt8uRhNCBB0z4ETeihdUVQOKSANnH940tl5kvwBUCS7yjemIYovpaPg6SY+Y30HHdL0+WaJHGpMz+ArkXslH+Wh/Elfs7lpsKH3f37tBUKUsPMyJGibpVDPXBO0Uan2n1ODVX4O8tSx5rQN4WUgsOlHlGWeoImJus540F512pTUq5mKk8ySQ+mrHFChkD5Ar3x7fg8wGNFhqVzUNGBboKhNFdraA0/P5VcHP10BCbKqoxigE0MGZypPKYv718H3Cm89eNOa9pSlHIelS/G4gI1UBrikGypn8SB5Q/krTidZV71HmQ9VTkTUTjvaeEH7MY46A4sR5qwtm+yqnecBjvK3k7/c0IE62JdhIqXuaR1xuQZ1ESCcw3WPNPqkqzgaA+usZ4qzQteFTrS6hl7X2rlIgCVQS8HwhT6OWYAqUeUjupVS+5AN0SY5UGoVAum0VgTQFtIterA6IdttWtSepQdGcdHAYbfjleWNUpaAZgYQxrTONorfkLIOZ9CKtvXjikW9I/SMDRp1z0aqfMUhyENfjbTJ2frLFnVmUZQpekA5FC95BaUA5ZaNzg50ApueZfp18gd86H2j7hwKTuUCCGNv/KGRSzGHmjHc66KoLXhfdhtfbjURYQgDbTUSlL4Ab6UOSkE5aHfiDvmP5efXbfiAQK4scbfrvmzygBnQQPo9FA7eKBwH8watfdyZQemliH3LDeZ53oa2j8w0ZDU68QY4K8QOUsjRamLobKIcD1me/IKsykOgR6OTNYFiC+TlklJsPu27GXeiScodAZ7n6FMpowwhbntC2gRU2xxq4u2oBRjyG3RweTwzeh7NcBYaq5OKu+Sln2r0HfJv6wy/HepXs69prEPJS8+vd0RaXWJM/Ax1MtTOvOp8KM+BUAC+NRF0NOigd5QVeWjFi3GH+DTOgWjFH/lqY1jf6LSra9WbhpACGk0dCP55vqErdSC+whbyqgN+E39EPfkSNsQZg5oZrcSBzo6pT3WK6lwCAMnaotOUz56W44hoFdSPQKXdHFin2bNGu2FTAPApxZJ1203AI2zcqQmXsnR8MrP8/zod66AbYSPOsIFnet1udzxotrnKVvHcORj6lc0+CfLvk/+jaDuUbZc8hrIGATVh24txMGRV7R17x0W799iRTtHOuORNFm3cbnGuZFpvuqgvSzl5+WNyD4s0Bkz35qwtP363PXrvd624dYeds/tS6CumiTnlcsU3aNQ7CG1q2BjTa6Hw1e5hu+dLn6aBRHbG3tdYgTzkTqJlUXP5PHnoxSrKTgU3ULoiANN8+kG799abbHL6eHvZRa+zYXGTFQpyy1j9AqLKVWPvoyhRf872ffufbbB8xM665Eqz6bNMe/VVo6HlS1Pm/n7Qaxaveke5GSzNHLZHv/l/bP3x2+z0vT9pvdImi8ijlI+tok/+lE2P3retnh5Fz7aP2v5bv2SLBx+203/iXbZu80mgccaKlbJFRX3WonHQNmKUV7vTCjwGh/fZvps/b5ObTrIdF15pcXEa/vV1hlAIn44lt9wz2r2W5YaL9sCtX7alowft/IteaZXNp1s/v9GK2jkHueXmoHcWvvIDcmsn4tHCQ3bnt79q05WsVaxnd95+c6jYNcfOi3bb8rBsW895te3Ye6WNiuvJv2yVgl6QM9zJjSyrZXEAk0XQPG717Kbrr8Oq6Nvr//11yFeDPvCsoHqT3aDGNQZEFwD+p+/+oh381t/bibuuslMvfpvPa8sVc1aoTKAX6v0pfyy9LmA3pBHm2ov2Lzf8D9kd9uo3/KrlNm0xm8qYJreWowkrZuUYrKV2JgASbQDbtP3fv9lu+87nbOeeq+zM3XLBWQd9ybQ8rr74UTRUM6Anq0NlA3jf+KmPYX3k7LK3/YoVJ9dbVV8SNZOeMi1TfxrCduC/LVDtLNvB73/NHv3OP9trzz/HXv/TV9lkrWZT2YL1c3QkmBkFYXhGnYYsuIHt3/+offrTn3Zw/oVf+Hk7ffvp6HTOpxWE962yDgFRDdsApuV63b7yla/YA/v22fbTT7e3vOUttJ2yTyvwL4K0Bb1DE1hIN2RxPXbggF3/iU/6vTHt6N7nqeMf9ThmAWrv7l2Y4FmbWVLPUQVwpFk0BH0yz8v8xqKiNxljVagbxVawdRMla3fpFQCgsTucFhxoCii7XpDKHO3GRcx4sKs3b8dp4iO92FwXM12mKnSqDF/mVY2Olq13BtqCXA2FQYWtr1XpjQY0XNIbAxfwJb89r0QhAYcatrZkl+PlJu3Wkenb0cbAmjYJKKEk+mpFxbuiUPqK1aWHi6n4AulsqOboqaCnF81k5JOmGd8AjaYK8FzDDi0D4j02Jk4lGtlUpWhHW3UsNE2+hH940o44kkk5ZLsMNbDk5EhbHi7bllpkTYZBc22GASi2PhkrjoBWX2y891Xv6CZUz8qljFVKeVuqN2kADIGiIsBEgN5ll9xSeGTQsFNyqT6qVFtE+d31PHumnXfBBTws2+yiGn3Zl7GRs7AW749y+sIHXwIohlVd+MtgqU0P91uP64V4K/WBZPpCpjrwM2UjMMBqygFQTdLLj47Yyblle6o7bZ3MFn43rFTG2slPkIewnAYtcMWqylBnck8qRB20Caugu47GP7BMGYsnt57RzzryoTPJtAH6KvqnNbs6PoGyVhtYvVHy4d5YIKAveCobBepZS5n4LtXUmdYSqw0XeF6xJSxylVUhg+WWr1hcAnT1xVI6JFpkkf4Vhm3bAt85OgzNPM+QT47xYK88tgIJVBg+LmoemvIBPDTk0nQA7zABoHQYprMONfs0pPdFJ1CS5aT7ir/2CJqkNoFlzXNZTap7bSqrur/ntuduLfajHscsQJ2z9xX+QlBOqXLW1ff1AYUhp1+ZlDkKJE9laF884bruC4Cwj8J7hyyKAvggoVsd/rWE04BGhdpbAVDLa1E4Gn9XlgXdUFgqWMRE40JBipVlGCIfOI3nfXVG8szCm76YyJITP9QoSkkaxFXlSTEymq8ybFpRPFmeIQ0NkOfy5xppFqH/4i98qzeLiC8e+5qfhNku/yq9rPXhm2SnIQow1TCxcTRqIQUpv3gT79yDF3mWe6VGQQYdKq+RhiE8yDP2KIwZClMWHQbTcjQV56kqeByPhsTjhltk6iEV1zcg8Efii45jHGQnkkdRGkol1lwxI+jLE3nfdedtivWM44K9ryKCGq7WjSIeAMwACb7EN5asdnyJBwxDM9bIU+80ws3xY1iuBWvYJp5rfKcyE7/iD54I4rEKqC7nsHqydZvqz9pc5kSsvi1YzrOWz/atFdUob2JSDsA8ZZalJEZW7DcA6ti6AFi2jXUGWA2iOjZgjQ5pIw2SOsm20Luydw5yl5J/32i8AC+boVE9YfXwS+UYHK/1ng1wogDVYcCiTaNT2jmYARppMHQfN62XK1srX/Uy0154EWkTE90Z+fytAohALVtdc/OyZcA0tmaxbyVoq/28zQBcZYE65S3QWQtM0kfVja516LeOFJxkFek61QHN80o/dDgtt6mWUMdJeUsvdO6Tj4DqxwqgXjpeOl46XjoCnL50vHS8dLx0HIPHSwD10vHS8dJxjB5m/x+7HyumbcNJTQAAAABJRU5ErkJggg==;" parent="WIyWlLk6GJQsqaUBKTNV-1" vertex="1">
          <mxGeometry x="-18" y="400" width="296" height="124" as="geometry" />
        </mxCell>
        <mxCell id="y5IzGZnKFNXSVrpixcKK-15" value="Features Extra-jogo:" style="swimlane;whiteSpace=wrap;html=1;" parent="WIyWlLk6GJQsqaUBKTNV-1" vertex="1">
          <mxGeometry x="340" y="360" width="200" height="370" as="geometry" />
        </mxCell>
        <mxCell id="y5IzGZnKFNXSVrpixcKK-16" value="- Timer;&lt;div&gt;&lt;br&gt;&lt;div&gt;-Botão de reinciar;&lt;/div&gt;&lt;div&gt;&lt;br&gt;&lt;/div&gt;&lt;div&gt;-Botão de jogar novamente após ganhar/perder;&lt;/div&gt;&lt;/div&gt;&lt;div&gt;&lt;br&gt;&lt;/div&gt;&lt;div&gt;- Contador de numero de minas identificadas através do click direito&lt;/div&gt;&lt;div&gt;&lt;br&gt;&lt;/div&gt;&lt;div&gt;-EXTRA -&amp;gt; leaderboard dos tempos dos ultimos jogos concluidos com vitoria&lt;/div&gt;" style="text;html=1;align=center;verticalAlign=middle;whiteSpace=wrap;rounded=0;" parent="y5IzGZnKFNXSVrpixcKK-15" vertex="1">
          <mxGeometry x="45" y="140" width="110" height="72" as="geometry" />
        </mxCell>
        <mxCell id="y5IzGZnKFNXSVrpixcKK-19" style="edgeStyle=orthogonalEdgeStyle;rounded=0;orthogonalLoop=1;jettySize=auto;html=1;entryX=0.5;entryY=0;entryDx=0;entryDy=0;" parent="WIyWlLk6GJQsqaUBKTNV-1" source="y5IzGZnKFNXSVrpixcKK-18" target="y5IzGZnKFNXSVrpixcKK-5" edge="1">
          <mxGeometry relative="1" as="geometry">
            <mxPoint x="720" y="200" as="targetPoint" />
            <Array as="points">
              <mxPoint x="730" y="190" />
              <mxPoint x="412" y="190" />
            </Array>
          </mxGeometry>
        </mxCell>
        <mxCell id="y5IzGZnKFNXSVrpixcKK-18" value="Após selecionar modo de jogo:" style="rounded=0;whiteSpace=wrap;html=1;" parent="WIyWlLk6GJQsqaUBKTNV-1" vertex="1">
          <mxGeometry x="670" y="80" width="120" height="60" as="geometry" />
        </mxCell>
      </root>
    </mxGraphModel>
  </diagram>
</mxfile>
